<svg width="70" height="70" viewBox="0 0 70 70" fill="none" xmlns="http://www.w3.org/2000/svg">
<path d="M58.3788 33.0109C57.813 33.0109 57.2573 33.0536 56.7129 33.1322L56.0008 30.4746C56.7747 30.345 57.5689 30.2765 58.3789 30.2765C59.5059 30.2765 60.6301 30.4083 61.7202 30.6681C62.2474 30.7937 62.799 30.5962 63.1263 30.1644C66.3016 25.979 66.4837 23.4834 63.8479 20.2743C60.4461 16.1331 57.3162 14.0052 54.279 13.7692C52.0037 13.5919 49.8127 14.4769 47.5735 16.4726C47.279 16.7349 47.1122 17.1119 47.1159 17.5064C47.1197 17.901 47.2938 18.2745 47.5933 18.5313L49.8256 20.4448C49.7345 20.8412 49.656 21.2155 49.5834 21.5622C49.3966 22.4531 49.2488 23.1543 49.013 23.7358C48.691 23.5482 48.3738 23.3627 48.0622 23.1801C43.4742 20.4935 39.8511 18.3712 36.1621 19.3921C33.7114 20.0702 31.561 22.0853 29.4405 25.704L19.0714 22.7368L18.4312 20.7563C17.7722 18.7175 16.365 17.6032 14.0031 17.2508L2.275 15.2644C1.78295 15.1807 1.28461 15.3724 0.974805 15.7637C0.665 16.1548 0.593086 16.6838 0.786953 17.1437C3.70795 24.0676 4.81441 25.8966 8.98393 27.9683L19.0479 32.9684C21.6449 34.2586 22.575 35.2449 23.3751 37.5571L25.35 43.2648H23.1591C22.4798 37.4992 17.5662 33.0109 11.6211 33.0109C5.21322 33.0109 0 38.2241 0 44.632C0 51.0399 5.21322 56.2531 11.6211 56.2531C17.5663 56.2531 22.48 51.7648 23.1591 45.9992H26.2961L27.6333 49.8642C27.8239 50.4149 28.3426 50.7843 28.9253 50.7843H43.3984C43.8346 50.7843 44.2449 50.5761 44.5024 50.2237C44.7598 49.8712 44.8335 49.4172 44.7007 49.0015C44.2511 47.5922 44.023 46.1222 44.023 44.632C44.023 38.4812 47.9117 33.2223 53.3594 31.1827L54.0719 33.8417C49.7907 35.5567 46.7574 39.7455 46.7574 44.6321C46.7574 51.04 51.9706 56.2532 58.3785 56.2532C64.7864 56.2532 69.9996 51.04 69.9996 44.6321C69.9996 38.2243 64.7866 33.0109 58.3788 33.0109ZM11.6211 53.5187C6.72096 53.5187 2.73438 49.5321 2.73438 44.632C2.73438 39.7319 6.72096 35.7453 11.6211 35.7453C16.0564 35.7453 19.7429 39.0115 20.4025 43.2648H17.6185C16.995 40.5285 14.5436 38.4797 11.6211 38.4797C8.22869 38.4797 5.46875 41.2396 5.46875 44.632C5.46875 48.0244 8.22869 50.7843 11.6211 50.7843C14.5436 50.7843 16.9948 48.7355 17.6185 45.9992H20.4025C19.7429 50.2525 16.0564 53.5187 11.6211 53.5187ZM11.6211 45.9992H14.7529C14.2244 47.205 13.0199 48.05 11.6211 48.05C9.73643 48.05 8.20313 46.5167 8.20313 44.632C8.20313 42.7473 9.73643 41.214 11.6211 41.214C13.0199 41.214 14.2244 42.059 14.7529 43.2648H11.6211C10.866 43.2648 10.2539 43.877 10.2539 44.632C10.2539 45.387 10.866 45.9992 11.6211 45.9992ZM36.8914 22.0275C39.4657 21.3153 42.6497 23.1795 46.6806 25.5396C46.788 25.6025 46.8971 25.6664 47.0058 25.7301C46.7748 25.8429 46.5203 25.9539 46.236 26.0649L39.6657 28.63L32.1638 26.4833C33.753 23.9289 35.3072 22.4658 36.8914 22.0275ZM44.1809 35.13H39.7157C38.9607 35.13 38.3485 35.7423 38.3485 36.4972C38.3485 37.2522 38.9607 37.8644 39.7157 37.8644H42.6874C42.308 38.7407 42.0003 39.6545 41.7709 40.5989H36.6399C35.885 40.5989 35.2728 41.2112 35.2728 41.9661C35.2728 42.7211 35.885 43.3333 36.6399 43.3333H41.3379C41.3055 43.7621 41.2888 44.195 41.2888 44.632C41.2888 45.7856 41.4038 46.9293 41.6317 48.05H29.899L25.9591 36.6631C24.795 33.2987 23.0595 31.9083 20.2645 30.5195L10.2006 25.5194C7.37639 24.1163 6.37889 23.0649 4.29762 18.3802L13.5603 19.9492C13.5699 19.9508 13.5793 19.9523 13.5889 19.9537C15.0977 20.1766 15.5403 20.7032 15.8294 21.5973L16.6939 24.2713C16.834 24.7047 17.1808 25.0398 17.6187 25.1652L39.357 31.3859C39.6446 31.4683 39.9517 31.4538 40.2303 31.345L47.2303 28.6121C51.2259 27.0523 51.705 24.7683 52.2595 22.1234C52.3806 21.5457 52.506 20.9482 52.6761 20.3029C52.8099 19.7961 52.6419 19.2574 52.2439 18.9162L50.6369 17.5387C51.8257 16.7425 52.9396 16.4089 54.0669 16.4954C56.2914 16.6684 58.8712 18.5238 61.7349 22.01C62.4131 22.8356 62.9546 23.4965 62.9476 24.4464L61.0864 23.6804C60.3874 23.3927 59.589 23.7262 59.3016 24.4241C59.0141 25.1224 59.3473 25.9215 60.0454 26.2089L61.9914 27.0099C61.8345 27.2638 61.6572 27.5323 61.4548 27.8196C60.4424 27.6353 59.4114 27.5423 58.3785 27.5423C52.4692 27.5422 47.2512 30.5575 44.1809 35.13ZM58.3788 53.5187C53.4786 53.5187 49.4921 49.5321 49.4921 44.632C49.4921 41.0102 51.6712 37.8894 54.7862 36.5067L55.5062 39.1937C53.5574 40.2273 52.2264 42.2766 52.2264 44.632C52.2264 48.0244 54.9864 50.7843 58.3788 50.7843C61.7712 50.7843 64.5311 48.0244 64.5311 44.632C64.5311 41.2396 61.7712 38.4797 58.3788 38.4797C58.3011 38.4797 58.2241 38.4827 58.1473 38.4855L57.4269 35.797C57.7399 35.7635 58.0572 35.7453 58.3789 35.7453C63.279 35.7453 67.2656 39.7319 67.2656 44.632C67.2656 49.5321 63.2789 53.5187 58.3788 53.5187ZM57.0582 44.9858C57.2219 45.5967 57.7742 45.9996 58.378 45.9996C58.495 45.9996 58.6142 45.9844 58.7326 45.9526C59.462 45.7571 59.8948 45.0074 59.6993 44.2782L58.8886 41.2522C60.5324 41.4991 61.7967 42.9206 61.7967 44.632C61.7967 46.5167 60.2634 48.05 58.3788 48.05C56.4941 48.05 54.9608 46.5167 54.9608 44.632C54.9608 43.5526 55.4642 42.5891 56.248 41.9623L57.0582 44.9858Z" fill="#42403F"/>
<path d="M33.563 35.1299H33.5621C32.807 35.1299 32.1953 35.7421 32.1953 36.4971C32.1953 37.252 32.8079 37.8643 33.563 37.8643C34.3181 37.8643 34.9302 37.252 34.9302 36.4971C34.9302 35.7421 34.3181 35.1299 33.563 35.1299Z" fill="#42403F"/>
</svg>
