<svg width="70" height="70" viewBox="0 0 70 70" fill="none" xmlns="http://www.w3.org/2000/svg">
<path d="M14.9575 45.0035C14.2672 45.0035 13.7075 45.5632 13.7075 46.2535C13.7075 46.9161 13.1687 47.4552 12.5064 47.4552C11.8437 47.4552 11.3047 46.9161 11.3047 46.2535C11.3047 45.5911 11.8437 45.0522 12.5064 45.0522C13.1967 45.0522 13.7564 44.4926 13.7564 43.8022C13.7564 43.1119 13.1967 42.5522 12.5064 42.5522C10.4653 42.5522 8.80469 44.2126 8.80469 46.2535C8.80469 48.2946 10.4653 49.9552 12.5064 49.9552C14.5472 49.9552 16.2075 48.2946 16.2075 46.2535C16.2075 45.5632 15.6478 45.0035 14.9575 45.0035Z" fill="#42403F"/>
<path d="M60.0122 45.0035C59.3219 45.0035 58.7622 45.5632 58.7622 46.2535C58.7622 46.9161 58.2234 47.4552 57.5611 47.4552C56.8984 47.4552 56.3594 46.9161 56.3594 46.2535C56.3594 45.5911 56.8984 45.0522 57.5611 45.0522C58.2514 45.0522 58.8111 44.4926 58.8111 43.8022C58.8111 43.1119 58.2514 42.5522 57.5611 42.5522C55.52 42.5522 53.8594 44.2126 53.8594 46.2535C53.8594 48.2946 55.52 49.9552 57.5611 49.9552C59.6019 49.9552 61.2622 48.2946 61.2622 46.2535C61.2622 45.5632 60.7025 45.0035 60.0122 45.0035Z" fill="#42403F"/>
<path d="M65 16.2427H5C2.24297 16.2427 0 18.4856 0 21.2427V41.6821C0 45.1033 2.89703 46.725 5.07484 47.2892C5.58125 50.9383 8.71969 53.7575 12.5058 53.7575C15.7463 53.7575 18.513 51.6917 19.56 48.8078H50.5078C51.5552 51.6917 54.3225 53.7575 57.5636 53.7575C60.8041 53.7575 63.5708 51.6917 64.6178 48.8078H68.75C69.4403 48.8078 70 48.2481 70 47.5578V21.2427C70 18.4856 67.757 16.2427 65 16.2427ZM67.5 33.7097H62.5578C61.8545 33.7097 61.2825 33.1375 61.2825 32.4344V22.5317H67.5V33.7097ZM12.5058 51.2574C9.845 51.2574 7.66328 49.1697 7.51094 46.5464C7.52266 46.4978 7.53234 46.4486 7.53828 46.3977C7.55578 46.2472 7.54437 46.1003 7.51078 45.9611C7.66281 43.3378 9.84469 41.25 12.5058 41.25C15.2641 41.25 17.5083 43.4945 17.5083 46.2533C17.5083 49.0125 15.2641 51.2574 12.5058 51.2574ZM27.5911 22.5317H41.2923V33.7097H27.5911V22.5317ZM25.0911 33.7097H8.77703C8.07375 33.7097 7.50172 33.1375 7.50172 32.4344V22.5317H25.0911V33.7097ZM55.0981 22.5317V32.4861C55.0981 33.1608 54.5492 33.7097 53.8745 33.7097H43.7923V22.5317H55.0981ZM41.2923 36.2097V46.3077H27.5911V36.2097H41.2923ZM57.5636 51.2574C54.8044 51.2574 52.5595 49.0125 52.5595 46.2533C52.5595 43.4945 54.8044 41.25 57.5636 41.25C60.3219 41.25 62.5661 43.4945 62.5661 46.2533C62.5661 49.0125 60.322 51.2574 57.5636 51.2574ZM65.0647 46.3077C65.0648 46.2895 65.0661 46.2716 65.0661 46.2533C65.0661 42.116 61.7005 38.75 57.5636 38.75C53.4259 38.75 50.0595 42.116 50.0595 46.2533C50.0595 46.2716 50.0608 46.2895 50.0609 46.3077H43.7923V36.2097H53.8745C55.9278 36.2097 57.5981 34.5394 57.5981 32.4861V21.2817C57.5981 20.5914 57.0384 20.0317 56.3481 20.0317H6.25172C5.56141 20.0317 5.00172 20.5914 5.00172 21.2817V32.4344C5.00172 34.5161 6.69531 36.2097 8.77703 36.2097H25.0911V46.3077H20.0069C20.007 46.2895 20.0083 46.2716 20.0083 46.2533C20.0083 42.116 16.6427 38.75 12.5058 38.75C8.90063 38.75 5.88187 41.3056 5.16437 44.7002C4.01312 44.305 2.5 43.4497 2.5 41.6819V21.2427C2.5 19.8641 3.62156 18.7427 5 18.7427H65C65.9392 18.7427 66.7583 19.2638 67.1855 20.0317H60.0325C59.3422 20.0317 58.7825 20.5914 58.7825 21.2817V32.4344C58.7825 34.5161 60.4761 36.2097 62.5578 36.2097H67.5V37.5056H66.283C65.5927 37.5056 65.033 38.0653 65.033 38.7556C65.033 39.446 65.5927 40.0056 66.283 40.0056H67.5V46.3077H65.0647Z" fill="#42403F"/>
</svg>
