<svg width="70" height="70" viewBox="0 0 70 70" fill="none" xmlns="http://www.w3.org/2000/svg">
<path d="M14.9575 47.5232C14.2672 47.5232 13.7075 48.0829 13.7075 48.7732C13.7075 49.4358 13.1687 49.9749 12.5064 49.9749C11.8437 49.9749 11.3047 49.4358 11.3047 48.7732C11.3047 48.1107 11.8437 47.5718 12.5064 47.5718C13.1967 47.5718 13.7564 47.0121 13.7564 46.3218C13.7564 45.6315 13.1967 45.0718 12.5064 45.0718C10.4653 45.0718 8.80469 46.7322 8.80469 48.7732C8.80469 50.8143 10.4653 52.4749 12.5064 52.4749C14.5472 52.4749 16.2075 50.8143 16.2075 48.7732C16.2075 48.0827 15.6478 47.5232 14.9575 47.5232Z" fill="#42403F"/>
<path d="M60.0122 47.5232C59.3219 47.5232 58.7622 48.0829 58.7622 48.7732C58.7622 49.4358 58.2234 49.9749 57.5611 49.9749C56.8984 49.9749 56.3594 49.4358 56.3594 48.7732C56.3594 48.1107 56.8984 47.5718 57.5611 47.5718C58.2514 47.5718 58.8111 47.0121 58.8111 46.3218C58.8111 45.6315 58.2514 45.0718 57.5611 45.0718C55.52 45.0718 53.8594 46.7322 53.8594 48.7732C53.8594 50.8143 55.52 52.4749 57.5611 52.4749C59.6019 52.4749 61.2622 50.8143 61.2622 48.7732C61.2622 48.0827 60.7025 47.5232 60.0122 47.5232Z" fill="#42403F"/>
<path d="M69.8266 31.5377L65.0342 23.4178C63.3906 20.6755 61.8397 19.0741 58.7355 18.8033C58.6338 18.7766 58.5267 18.7622 58.4164 18.7622H48.8281V16.2231C48.8281 14.8447 47.7066 13.7231 46.3281 13.7231H2.5C1.12156 13.7231 0 14.8447 0 16.2231V47.5233C0 48.9019 1.12156 50.0233 2.5 50.0233H5.10797C5.70531 53.5677 8.79422 56.2769 12.5058 56.2769C16.2166 56.2769 19.3048 53.5677 19.902 50.0233H50.1658C50.7631 53.5677 53.852 56.2769 57.5636 56.2769C61.2744 56.2769 64.3627 53.5677 64.9598 50.0233H68.75C69.4403 50.0233 70 49.4636 70 48.7733V32.173C70 31.9496 69.94 31.73 69.8266 31.5377ZM65.0661 36.3274C65.0661 35.6381 65.6269 35.0774 66.3161 35.0774H67.5V37.5381H65.0661V36.3274ZM66.7503 31.2442H55.2673C55.185 31.2272 55.0997 31.2181 55.0122 31.2181C54.3091 31.2181 53.737 30.6461 53.737 29.9428V24.9341H63.0261L66.7503 31.2442ZM2.5 16.2231H46.3281V47.5233H19.9022C19.3053 43.9789 16.2167 41.2697 12.5058 41.2697C8.79391 41.2697 5.70484 43.9791 5.10781 47.5233H2.5V16.2231ZM12.5058 53.7769C9.74656 53.7769 7.50187 51.5321 7.50187 48.7728C7.50187 46.0141 9.74656 43.7696 12.5058 43.7696C15.2641 43.7696 17.5083 46.0141 17.5083 48.7728C17.5083 51.5321 15.2641 53.7769 12.5058 53.7769ZM57.5636 53.7769C54.8044 53.7769 52.5597 51.5321 52.5597 48.7728C52.5597 46.0141 54.8044 43.7696 57.5636 43.7696C60.3219 43.7696 62.5661 46.0141 62.5661 48.7728C62.5661 51.5321 60.322 53.7769 57.5636 53.7769ZM64.96 47.5233C64.3631 43.9789 61.2745 41.2697 57.5636 41.2697C53.8517 41.2697 50.7627 43.9791 50.1656 47.5233H48.8281V21.2622H57.7459C59.3413 21.2622 60.3375 21.5985 61.2164 22.4341H52.487C51.7967 22.4341 51.237 22.9938 51.237 23.6841V29.9428C51.237 31.9203 52.7652 33.5477 54.7027 33.7055C54.8017 33.7308 54.9055 33.7441 55.0122 33.7441H63.6014C62.9606 34.4172 62.5661 35.3267 62.5661 36.3272V38.788C62.5661 39.4783 63.1258 40.038 63.8161 40.038H67.5V47.5231H64.96V47.5233Z" fill="#42403F"/>
<path d="M6.30469 21.2622H42.5287C43.2191 21.2622 43.7787 20.7025 43.7787 20.0122C43.7787 19.3219 43.2191 18.7622 42.5287 18.7622H6.30469C5.61437 18.7622 5.05469 19.3219 5.05469 20.0122C5.05469 20.7025 5.61437 21.2622 6.30469 21.2622Z" fill="#42403F"/>
</svg>
