<svg width="70" height="70" viewBox="0 0 70 70" fill="none" xmlns="http://www.w3.org/2000/svg">
<g clip-path="url(#clip0_33_83)">
<path d="M67.8077 33.0862L62.6424 29.6428L56.7294 16.6745C55.9432 15.0894 54.3243 14.0891 52.5549 14.0948H4.54766C1.97024 14.0948 -0.119141 16.1841 -0.119141 18.762V50.2641C-0.119141 50.9084 0.403085 51.4306 1.0478 51.4306H7.30027C8.5745 55.0662 12.5543 56.9799 16.1895 55.7057C18.1901 55.0045 19.7634 53.4312 20.4646 51.4306H46.9695C48.2437 55.0662 52.2236 56.9799 55.8592 55.7057C57.8598 55.0045 59.4327 53.4312 60.1339 51.4306H68.7188C69.3635 51.4306 69.8857 50.9084 69.8857 50.2641V36.2632C69.8354 34.9007 69.0359 33.6782 67.8077 33.0862ZM59.8305 29.2626H51.2176C50.5733 29.2626 50.0511 28.7403 50.0511 28.0956V22.2619C50.0511 21.6177 50.5733 21.0954 51.2176 21.0954H55.7472L59.8305 29.2626ZM18.4545 50.0305C17.9385 52.5557 15.4726 54.1846 12.9474 53.6686C10.4222 53.1525 8.79336 50.6871 9.30941 48.1619C9.82547 45.6362 12.2908 44.0074 14.816 44.5239C16.989 44.9678 18.5495 46.8796 18.549 49.0972C18.5485 49.411 18.5172 49.7234 18.4545 50.0305ZM58.1238 50.0305C57.6077 52.5557 55.1423 54.1846 52.6167 53.6686C50.0915 53.1525 48.4626 50.6871 48.9786 48.1619C49.4947 45.6362 51.9601 44.0074 54.4858 44.5239C56.6587 44.9678 58.2187 46.8796 58.2182 49.0972C58.2182 49.411 58.1864 49.7234 58.1238 50.0305ZM67.5523 44.4304H62.8855V46.7638H67.5523V49.0972H60.5516C60.5516 45.2313 57.4173 42.097 53.5514 42.097C49.6851 42.097 46.5508 45.2313 46.5508 49.0972H20.8824C20.8824 45.2313 17.7481 42.097 13.8817 42.097C10.0158 42.097 6.88154 45.2313 6.88154 49.0972H2.21426V46.7638H5.7146V44.4304H2.21426V36.2632H45.3843V33.9294H2.21426V18.762C2.21426 17.4731 3.25919 16.4282 4.54813 16.4282H52.5549C53.4256 16.422 54.2251 16.9062 54.6234 17.6801L55.1157 18.762H51.218C49.2849 18.762 47.7177 20.3287 47.7177 22.2619V28.0956C47.7177 30.0288 49.2849 31.596 51.218 31.596H61.3687L66.5164 35.0275C66.5468 35.0474 66.5677 35.0754 66.5957 35.0963H64.052C63.4077 35.0963 62.8855 35.6185 62.8855 36.2632V40.93C62.8855 41.5743 63.4077 42.0965 64.052 42.0965H67.5523V44.4304ZM67.5523 39.7631H65.2189V37.4297H67.5523V39.7631Z" fill="#42403F"/>
<path d="M47.7188 33.9292H53.5525V36.2631H47.7188V33.9292Z" fill="#42403F"/>
<path d="M22.0488 44.4302H45.3838V46.7636H22.0488V44.4302Z" fill="#42403F"/>
</g>
<defs>
<clipPath id="clip0_33_83">
<rect width="70" height="70" fill="white"/>
</clipPath>
</defs>
</svg>
