<svg width="70" height="70" viewBox="0 0 70 70" fill="none" xmlns="http://www.w3.org/2000/svg">
<path d="M5.41563 56.2861H5.40469C4.8384 56.2861 4.38477 56.7452 4.38477 57.3115C4.38477 57.8778 4.84934 58.3369 5.41563 58.3369C5.98192 58.3369 6.44103 57.8778 6.44103 57.3115C6.44103 56.7452 5.98206 56.2861 5.41563 56.2861Z" fill="#42403F"/>
<path d="M40.4918 56.2861H40.4809C39.9146 56.2861 39.4609 56.7452 39.4609 57.3115C39.4609 57.8778 39.9255 58.3369 40.4918 58.3369C41.0581 58.3369 41.5172 57.8778 41.5172 57.3115C41.5172 56.7452 41.0581 56.2861 40.4918 56.2861Z" fill="#42403F"/>
<path d="M31.7112 56.2861H14.1758C13.6095 56.2861 13.1504 56.7452 13.1504 57.3115C13.1504 57.8778 13.6095 58.3369 14.1758 58.3369H31.7112C32.2775 58.3369 32.7366 57.8778 32.7366 57.3115C32.7366 56.7452 32.2775 56.2861 31.7112 56.2861Z" fill="#42403F"/>
<path d="M16.3688 39.8467H9.79297C9.22668 39.8467 8.76758 40.3058 8.76758 40.8721C8.76758 41.4384 9.22668 41.8975 9.79297 41.8975H16.3688C16.9351 41.8975 17.3942 41.4384 17.3942 40.8721C17.3942 40.3058 16.9351 39.8467 16.3688 39.8467Z" fill="#42403F"/>
<path d="M68.2514 45.9746L58.2123 8.84581C58.0607 8.28472 57.6798 7.8051 57.1676 7.5303C56.6555 7.25549 56.0453 7.20313 55.4936 7.38688L53.9952 7.88645C53.1864 8.15593 52.6195 8.87931 52.5513 9.72916L52.2683 13.2509L33.4458 20.8629C32.406 21.2902 31.6246 22.1473 31.3021 23.2145L29.251 30.0015C28.2083 30.1346 27.3989 31.0256 27.3989 32.1039V35.4629H7.6012C5.82712 35.4629 4.38391 36.9063 4.38391 38.6802V46.352C4.38391 48.126 5.82726 49.5692 7.6012 49.5692H10.9596V51.9022H5.40917C2.42664 51.9021 0 54.3287 0 57.3114C0 60.2941 2.42664 62.7207 5.40917 62.7207H40.4799C40.4806 62.7207 40.4812 62.7206 40.4817 62.7206C40.4829 62.7206 40.4842 62.7207 40.4854 62.7207C43.4681 62.7207 45.8946 60.2941 45.8946 57.3114C45.8946 54.3287 43.4679 51.9022 40.4854 51.9022C40.4842 51.9022 40.4829 51.9024 40.4817 51.9024C40.481 51.9024 40.4805 51.9022 40.4799 51.9022H34.9295V49.5692H38.2879C39.4577 49.5692 40.4092 48.6177 40.4092 47.4479V42.4507C40.4092 42.0307 40.348 41.6138 40.2273 41.2114L37.3027 31.4622L38.3481 27.1325L48.5231 22.1903C49.0326 21.9429 49.2449 21.3294 48.9974 20.82C48.7501 20.3107 48.1368 20.0982 47.6271 20.3457L37.0179 25.4987C36.7431 25.6321 36.542 25.8813 36.4697 26.1782L35.5426 29.9828H31.399L33.2651 23.8079C33.4084 23.3338 33.7582 22.952 34.2198 22.7624L54.2444 14.6643C54.5195 14.553 54.8215 14.5555 55.0947 14.6714C55.3679 14.7872 55.5796 15.0026 55.6909 15.2778C55.9086 15.8162 55.6685 16.4385 55.1464 16.6937L51.4874 18.4709C50.9779 18.7183 50.7656 19.3318 51.0131 19.8412C51.2605 20.3506 51.8741 20.5631 52.3834 20.3155L53.0349 19.9991L61.2914 44.2314C60.8548 44.2364 60.4685 44.5166 60.3301 44.9317L57.2759 54.0948H55.7668C55.2005 54.0948 54.7414 54.5539 54.7414 55.1202C54.7414 55.6865 55.2005 56.1456 55.7668 56.1456H64.0424C67.3274 56.1456 70 53.4731 70 50.188C70.0004 48.5437 69.3313 47.0536 68.2514 45.9746ZM5.40917 60.6699C3.55744 60.6699 2.05079 59.1633 2.05079 57.3114C2.05079 55.4595 3.55744 53.953 5.40917 53.953C7.2609 53.953 8.76755 55.4597 8.76755 57.3114C8.76755 59.1631 7.26104 60.6699 5.40917 60.6699ZM40.4855 53.9529C42.3374 53.9529 43.8439 55.4595 43.8439 57.3113C43.8439 59.163 42.3373 60.6698 40.4855 60.6698C38.6338 60.6698 37.1272 59.1631 37.1272 57.3113C37.1272 55.4594 38.6337 53.9529 40.4855 53.9529ZM36.2498 53.9529C35.5162 54.8763 35.0762 56.043 35.0762 57.3113C35.0762 58.5796 35.5162 59.7464 36.2498 60.6698H9.64488C10.3785 59.7464 10.8185 58.5796 10.8185 57.3113C10.8185 56.043 10.3785 54.8761 9.64488 53.9529H36.2498ZM38.3589 47.4478H38.3586C38.3586 47.4867 38.327 47.5183 38.288 47.5183H18.5608C17.9945 47.5183 17.5354 47.9774 17.5354 48.5437C17.5354 49.11 17.9945 49.5691 18.5608 49.5691H32.8789V51.9021H13.0104V49.5691H14.1769C14.7432 49.5691 15.2023 49.11 15.2023 48.5437C15.2023 47.9774 14.7432 47.5183 14.1769 47.5183H7.6012C6.95793 47.5183 6.43471 46.9949 6.43471 46.3518V38.6801C6.43471 38.0368 6.95807 37.5136 7.6012 37.5136H27.3991V39.9641C27.3991 40.8236 27.7338 41.6314 28.3416 42.2392L30.3455 44.2431C30.9532 44.8508 31.761 45.1855 32.6205 45.1855H38.3589V47.4478ZM35.2808 32.0332C35.3117 32.0332 35.3395 32.0538 35.3484 32.0835L38.2633 41.8004C38.3266 42.0115 38.3587 42.2303 38.3587 42.4505V43.1345H32.6203C32.3087 43.1345 32.0159 43.0131 31.7955 42.7929L29.7916 40.789C29.5713 40.5686 29.4499 40.2757 29.4499 39.9641V32.1037C29.4499 32.0648 29.4815 32.0332 29.5205 32.0332H35.2808ZM54.8941 19.0955L56.0449 18.5366C57.5324 17.8098 58.2122 16.0403 57.5924 14.5083C57.2758 13.7253 56.6733 13.1126 55.8957 12.7828C55.4105 12.577 54.8933 12.4969 54.3828 12.5427L54.5957 9.89308C54.598 9.86478 54.6167 9.84086 54.6437 9.83183L56.1421 9.33226C56.1494 9.3298 56.171 9.32255 56.1979 9.33705C56.2247 9.3514 56.2304 9.37273 56.2326 9.3808L65.7205 44.4718C65.188 44.3151 64.6254 44.2297 64.0429 44.2297H63.458L54.8941 19.0955ZM64.0429 54.094H59.438L62.0424 46.2806H64.0429C66.197 46.2806 67.9496 48.0331 67.9496 50.1873C67.9496 52.3415 66.1971 54.094 64.0429 54.094Z" fill="#42403F"/>
</svg>
