<svg width="70" height="70" viewBox="0 0 70 70" fill="none" xmlns="http://www.w3.org/2000/svg">
<g clip-path="url(#clip0_33_88)">
<path d="M47.0657 55.4979H25.6372C24.9526 55.4979 24.3984 54.9437 24.3984 54.2598C24.3984 53.5752 24.9526 53.021 25.6372 53.021H47.0657C47.7503 53.021 48.3045 53.5752 48.3045 54.2598C48.3045 54.9437 47.7503 55.4979 47.0657 55.4979Z" fill="#42403F"/>
<path d="M63.9703 43.9406C63.3388 43.9406 62.7995 43.4601 62.7393 42.8187L62.0568 35.6631C54.1982 29.4019 31.7705 31.3721 31.5401 31.3933C31.4983 31.3983 31.4558 31.3962 31.4133 31.3983L9.38384 31.1474C6.63556 31.1524 4.02406 32.6803 2.74276 35.1111L6.50516 38.4759C7.014 38.9316 7.05793 39.7147 6.60154 40.2249C6.14515 40.7352 5.36418 40.7777 4.85322 40.3213L0.412601 36.3506C0.0284941 36.0068 -0.102612 35.4605 0.0837716 34.98C1.55358 31.1935 5.24725 28.6706 9.30163 28.6706H9.41289L31.38 28.9207C33.0553 28.7733 55.8927 26.8953 64.0624 34.1132C64.2984 34.3216 64.4458 34.6107 64.4748 34.924L65.2048 42.5849C65.2693 43.2659 64.7704 43.8704 64.0893 43.9349C64.0489 43.9391 64.0092 43.9406 63.9703 43.9406Z" fill="#42403F"/>
<path d="M15.3288 63.169C14.9177 63.169 14.5294 62.9649 14.2969 62.6163C13.8264 61.9069 12.6932 61.8629 12.168 62.5617C11.8824 62.9437 11.4041 63.1216 10.9321 63.0337C8.92156 62.6276 7.06126 61.7744 5.40223 60.4959C5.07553 60.2443 4.89552 59.8474 4.92174 59.4364C4.94584 59.053 4.81544 58.6965 4.55323 58.4322C4.30519 58.1813 4.00612 58.0452 3.59863 58.053C3.59084 58.053 3.58304 58.053 3.57454 58.053C3.17059 58.053 2.79073 57.856 2.55828 57.5237C1.37407 55.8264 0.590266 53.8385 0.290493 51.7727C0.234507 51.3914 0.359235 51.0073 0.627826 50.7309C0.868779 50.4843 1.00059 50.1611 1.00059 49.8224C1.00059 49.4822 0.868779 49.1598 0.627826 48.9124C0.359235 48.6375 0.234507 48.2526 0.290493 47.8714C0.590266 45.8063 1.37407 43.817 2.55828 42.1197C2.79569 41.7802 3.19043 41.5924 3.59863 41.5903C4.00754 41.5868 4.30519 41.4627 4.55323 41.2111C4.81544 40.9468 4.94584 40.5918 4.92174 40.2069C4.89552 39.7959 5.07553 39.399 5.40223 39.1475C7.05914 37.8711 8.91943 37.0179 10.9321 36.6097C11.4048 36.5168 11.8824 36.6997 12.1695 37.0816C12.6903 37.7811 13.8249 37.7379 14.2983 37.0271C14.562 36.6316 15.0354 36.4211 15.5003 36.4878C17.5066 36.7698 19.3683 37.47 21.0337 38.572C21.483 38.8682 21.6885 39.4196 21.5425 39.9369C21.4135 40.4018 21.5326 40.8781 21.865 41.2111C22.2058 41.5549 22.7111 41.6768 23.1867 41.523C23.6983 41.3642 24.2575 41.5449 24.5693 41.9829C25.7202 43.5902 26.4898 45.3782 26.8527 47.3009C26.9583 47.8537 26.6762 48.4071 26.1688 48.6495C25.7067 48.8692 25.419 49.3192 25.419 49.8231C25.419 50.3263 25.7067 50.7763 26.1702 50.9974C26.6776 51.239 26.9583 51.7925 26.8534 52.346C26.4891 54.2658 25.7216 56.0538 24.57 57.6619C24.2575 58.0991 23.699 58.2805 23.1874 58.1211C22.7118 57.9687 22.2066 58.0906 21.8657 58.4329C21.534 58.766 21.4142 59.2422 21.5432 59.7085C21.6885 60.2259 21.4816 60.7779 21.033 61.0735C19.3669 62.1755 17.5051 62.8771 15.501 63.1577C15.4436 63.1655 15.3855 63.169 15.3288 63.169ZM13.2098 59.554C14.1913 59.554 15.1176 59.9311 15.8128 60.593C16.9488 60.3648 18.0211 59.9679 19.0182 59.4038C19.004 58.3982 19.3874 57.4117 20.1096 56.686C20.8771 55.9135 21.9188 55.5216 22.9804 55.5833C23.5453 54.6698 23.9676 53.6925 24.2419 52.6649C23.4319 51.9555 22.9415 50.9194 22.9415 49.8224C22.9415 48.7246 23.4319 47.6878 24.2419 46.9784C23.9676 45.9508 23.5453 44.9736 22.9804 44.0601C21.9202 44.1175 20.8778 43.7291 20.1096 42.9573C19.3874 42.2317 19.004 41.2459 19.0182 40.2395C18.0232 39.6768 16.9495 39.2786 15.8114 39.0518C14.4706 40.3239 12.1758 40.3919 10.7705 39.1907C9.55937 39.5146 8.41981 40.0461 7.37167 40.7746C7.26749 41.5981 6.89897 42.367 6.31077 42.9573C5.75232 43.5208 5.04718 43.8836 4.27826 44.014C3.5802 45.1387 3.08625 46.3987 2.83042 47.7084C3.25279 48.3285 3.47815 49.0605 3.47815 49.8224C3.47815 50.5842 3.25279 51.3149 2.83042 51.935C3.08625 53.2453 3.5802 54.504 4.27826 55.6293C5.04718 55.7597 5.75232 56.124 6.31218 56.686C6.89897 57.2777 7.26749 58.0481 7.37167 58.8695C8.42123 59.5987 9.56079 60.1295 10.7712 60.4527C11.448 59.8751 12.302 59.554 13.2098 59.554Z" fill="#42403F"/>
<path d="M13.6171 56.0642C10.1743 56.0642 7.375 53.2649 7.375 49.8222C7.375 46.3794 10.1743 43.5801 13.6171 43.5801C17.0592 43.5801 19.8592 46.3794 19.8592 49.8222C19.8592 53.2649 17.0585 56.0642 13.6171 56.0642ZM13.6171 46.0569C11.5399 46.0569 9.85185 47.7457 9.85185 49.8222C9.85185 51.8986 11.5406 53.5874 13.6171 53.5874C15.6935 53.5874 17.3816 51.8986 17.3816 49.8222C17.3816 47.7457 15.6935 46.0569 13.6171 46.0569Z" fill="#42403F"/>
<path d="M59.7047 64.1779C59.2951 64.1779 58.9067 63.9731 58.6743 63.6258C58.3128 63.083 57.4504 63.0476 57.0464 63.5847C56.7594 63.966 56.2824 64.1439 55.8105 64.056C54.0189 63.6932 52.3634 62.9335 50.8901 61.7981C50.5641 61.5466 50.3848 61.1497 50.4103 60.7394C50.4216 60.5693 50.3997 60.2412 50.1297 59.9704C49.9397 59.7805 49.6641 59.6799 49.4018 59.6827C48.9759 59.6834 48.5961 59.4921 48.3601 59.1533C47.307 57.6417 46.6089 55.8714 46.341 54.0345C46.2858 53.6532 46.4098 53.2691 46.6791 52.9927C46.8626 52.8035 46.9633 52.5583 46.9633 52.2996C46.9633 52.041 46.8626 51.7944 46.6791 51.6058C46.4098 51.3302 46.2858 50.9453 46.341 50.5641C46.6089 48.725 47.307 46.9562 48.3601 45.4452C48.5961 45.1051 48.9731 44.8925 49.4018 44.9159C49.6633 44.9286 49.9397 44.8181 50.1325 44.6253C50.3997 44.3567 50.4216 44.03 50.4103 43.8585C50.3848 43.4475 50.5655 43.0506 50.8901 42.8004C52.3663 41.6644 54.0217 40.9047 55.8105 40.5426C56.2846 40.4511 56.7608 40.6326 57.0464 41.0146C57.4504 41.5475 58.3142 41.5163 58.6743 40.9734C58.9393 40.5787 59.4099 40.3654 59.8762 40.4341C61.6592 40.6843 63.3161 41.3072 64.7987 42.2881C65.248 42.5836 65.4549 43.1356 65.309 43.6537C65.2104 44.0102 65.3005 44.373 65.5542 44.626C65.815 44.8882 66.1984 44.9775 66.5626 44.8655C67.0715 44.7033 67.632 44.8875 67.9446 45.3226C68.9693 46.7514 69.6525 48.3438 69.9778 50.0552C70.0834 50.6087 69.8013 51.1636 69.2932 51.4053C68.9403 51.5732 68.7199 51.9155 68.7199 52.3004C68.7199 52.6837 68.9403 53.0275 69.2946 53.1961C69.8027 53.4385 70.0834 53.992 69.9785 54.5455C69.6532 56.2569 68.9693 57.8479 67.9453 59.2766C67.6334 59.7111 67.075 59.8939 66.5647 59.7352C66.2005 59.6196 65.8135 59.7111 65.5542 59.9733C65.3033 60.2263 65.2104 60.5905 65.3097 60.9456C65.4549 61.4636 65.248 62.0164 64.7994 62.3112C63.3176 63.2906 61.6614 63.915 59.8783 64.1666C59.8195 64.1737 59.7614 64.1779 59.7047 64.1779ZM57.8423 60.7004C58.7154 60.7004 59.5424 61.0271 60.1745 61.6004C61.1008 61.4069 61.9774 61.0824 62.7953 60.6309C62.8059 59.738 63.1567 58.8691 63.7973 58.225C64.4819 57.5382 65.4316 57.1811 66.3436 57.2087C66.7951 56.466 67.1352 55.6758 67.3663 54.8467C66.6632 54.1968 66.243 53.2741 66.243 52.2996C66.243 51.3238 66.664 50.4011 67.3663 49.7512C67.1352 48.9213 66.7944 48.1319 66.3443 47.3906C65.3827 47.426 64.4805 47.0618 63.7973 46.3736C63.1567 45.7301 62.8045 44.862 62.7953 43.9676C61.9774 43.5155 61.1008 43.1909 60.1745 42.9982C58.9584 44.1023 56.9344 44.1611 55.6631 43.1236C54.6652 43.3993 53.7227 43.838 52.8524 44.4361C52.7454 45.1667 52.4109 45.8471 51.8865 46.3736C51.3869 46.8747 50.7646 47.2035 50.0857 47.3318C49.5103 48.2736 49.0999 49.321 48.8802 50.411C49.2445 50.9694 49.4401 51.6214 49.4401 52.3004C49.4401 52.9793 49.2445 53.6306 48.8802 54.1883C49.0992 55.2875 49.5032 56.3193 50.085 57.2668C50.7646 57.3965 51.3862 57.7239 51.8858 58.225C52.4109 58.7536 52.7447 59.434 52.8524 60.1639C53.7227 60.7613 54.6638 61.2 55.6631 61.4757C56.2739 60.9761 57.0351 60.7004 57.8423 60.7004Z" fill="#42403F"/>
<path d="M58.1987 57.9342C55.0904 57.9342 52.5625 55.4064 52.5625 52.2988C52.5625 49.1905 55.0904 46.6626 58.1987 46.6626C61.3063 46.6626 63.8341 49.1905 63.8341 52.2988C63.8341 55.4064 61.3063 57.9342 58.1987 57.9342ZM58.1987 49.1402C56.4574 49.1402 55.0394 50.5575 55.0394 52.2995C55.0394 54.0414 56.4567 55.4581 58.1987 55.4581C59.9406 55.4581 61.3573 54.0414 61.3573 52.2995C61.3573 50.5575 59.9406 49.1402 58.1987 49.1402Z" fill="#42403F"/>
<path d="M42.1099 34.4437C41.4253 34.4437 40.8711 33.8895 40.8711 33.2049V15.8655C40.8711 15.1816 41.4253 14.6274 42.1099 14.6274H47.0636C47.7482 14.6274 48.3024 15.1816 48.3024 15.8655C48.3024 16.5501 47.7482 17.1043 47.0636 17.1043H43.3479V33.2049C43.3479 33.8902 42.7938 34.4437 42.1099 34.4437Z" fill="#42403F"/>
<path d="M30.962 12.15H7.43019C6.7456 12.15 6.19141 11.5958 6.19141 10.9119V7.1963C6.19141 6.51171 6.7456 5.95752 7.43019 5.95752H30.962C31.6459 5.95752 32.2008 6.51171 32.2008 7.1963V10.9119C32.2008 11.5965 31.6459 12.15 30.962 12.15ZM8.66897 9.67315H29.7233V8.43508H8.66897V9.67315Z" fill="#42403F"/>
<path d="M37.1565 40.6362C37.1423 40.6362 37.1288 40.6362 37.1146 40.6348L29.6834 40.3811C29.5856 40.3783 29.4878 40.3627 29.3928 40.3365L26.3561 39.4889C26.1506 39.4315 25.9642 39.3223 25.814 39.1728C22.6469 36.0135 18.4401 34.2744 13.9683 34.2744C12.6863 34.2744 11.3568 34.4395 10.0181 34.7634C9.81258 34.8123 9.59714 34.808 9.39375 34.752L7.34353 34.1794C6.7376 34.0122 6.35491 33.4155 6.45271 32.7954L9.92314 10.7198C10.0188 10.1175 10.5376 9.67383 11.1477 9.67383H31.2737C31.8151 9.67383 32.2956 10.0268 32.4565 10.5448L38.3393 29.4738C38.3761 29.5935 38.3952 29.7175 38.3952 29.8416V39.3982C38.3952 39.7348 38.2585 40.0551 38.0182 40.289C37.7851 40.5115 37.4768 40.6362 37.1565 40.6362ZM29.9151 37.9113L35.9177 38.1154V30.0287L30.3609 12.15H12.2072L9.0713 32.0909L9.75306 32.2808C16.3757 30.7884 22.7347 32.7564 27.3284 37.1892L29.9151 37.9113Z" fill="#42403F"/>
<path d="M21.0552 34.4435C20.3706 34.4435 19.8164 33.8893 19.8164 33.2047V10.9116C19.8164 10.227 20.3706 9.67285 21.0552 9.67285C21.7391 9.67285 22.294 10.227 22.294 10.9116V33.2047C22.294 33.89 21.7391 34.4435 21.0552 34.4435Z" fill="#42403F"/>
<path d="M49.1732 46.3834C48.8521 46.3834 48.5318 46.2601 48.2887 46.0114C46.1924 43.8761 42.5377 41.2086 37.027 40.6282C36.3453 40.5573 35.8527 39.9471 35.925 39.2682C35.9966 38.5865 36.6131 38.0911 37.2857 38.1662C43.5278 38.8232 47.675 41.8514 50.0562 44.2779C50.5352 44.7648 50.5282 45.55 50.0399 46.0291C49.7996 46.2651 49.4864 46.3834 49.1732 46.3834Z" fill="#42403F"/>
</g>
<defs>
<clipPath id="clip0_33_88">
<rect width="70" height="70" fill="white"/>
</clipPath>
</defs>
</svg>
