<svg width="70" height="70" viewBox="0 0 70 70" fill="none" xmlns="http://www.w3.org/2000/svg">
<path d="M56.731 50.7436H24.8393C24.5885 50.7436 24.3479 50.6439 24.1705 50.4665C23.9931 50.2891 23.8934 50.0485 23.8934 49.7976C23.8934 49.5467 23.9931 49.3061 24.1705 49.1287C24.3479 48.9513 24.5885 48.8517 24.8393 48.8517H56.731C57.1621 48.8509 57.5753 48.6792 57.8799 48.3742C58.1846 48.0692 58.3558 47.6558 58.3561 47.2246V36.9138C58.3586 36.364 58.2582 35.8186 58.06 35.3057C55.5514 28.9953 50.9654 22.5355 44.428 16.103C43.5884 15.2755 42.4578 14.8102 41.2789 14.8071H5.93555C5.36437 14.8081 4.81696 15.0358 4.41361 15.4402C4.01026 15.8447 3.78397 16.3927 3.78447 16.9638V46.6996C3.78522 47.27 4.01206 47.8168 4.41528 48.2202C4.8185 48.6236 5.36519 48.8507 5.93555 48.8517H12.1674C12.4183 48.8517 12.6589 48.9513 12.8363 49.1287C13.0137 49.3061 13.1134 49.5467 13.1134 49.7976C13.1134 50.0485 13.0137 50.2891 12.8363 50.4665C12.6589 50.6439 12.4183 50.7436 12.1674 50.7436H5.93555C4.86359 50.7421 3.83597 50.3155 3.07806 49.5574C2.32016 48.7993 1.89383 47.7716 1.89258 46.6996V16.9638C1.89383 15.8919 2.32016 14.8642 3.07806 14.1061C3.83597 13.348 4.86359 12.9214 5.93555 12.9199H41.2789C42.9523 12.9222 44.5579 13.5811 45.7504 14.7551C52.4789 21.371 57.2106 28.0503 59.8195 34.6114C60.1054 35.3466 60.2507 36.1288 60.248 36.9176V47.2284C60.2462 48.1605 59.8751 49.0538 59.2158 49.7127C58.5566 50.3716 57.663 50.7423 56.731 50.7436Z" fill="#42403F"/>
<path d="M59.3016 38.7425H47.1471C46.8962 38.7425 46.6556 38.6428 46.4782 38.4654C46.3008 38.288 46.2012 38.0474 46.2012 37.7965C46.2012 37.5457 46.3008 37.305 46.4782 37.1276C46.6556 36.9502 46.8962 36.8506 47.1471 36.8506H59.3016C59.5525 36.8506 59.7931 36.9502 59.9705 37.1276C60.1479 37.305 60.2475 37.5457 60.2475 37.7965C60.2475 38.0474 60.1479 38.288 59.9705 38.4654C59.7931 38.6428 59.5525 38.7425 59.3016 38.7425Z" fill="#42403F"/>
<path d="M33.2261 38.7425H2.83852C2.58764 38.7425 2.34704 38.6428 2.16964 38.4654C1.99224 38.288 1.89258 38.0474 1.89258 37.7965C1.89258 37.5457 1.99224 37.305 2.16964 37.1276C2.34704 36.9502 2.58764 36.8506 2.83852 36.8506H33.2261C33.477 36.8506 33.7176 36.9502 33.895 37.1276C34.0724 37.305 34.172 37.5457 34.172 37.7965C34.172 38.0474 34.0724 38.288 33.895 38.4654C33.7176 38.6428 33.477 38.7425 33.2261 38.7425Z" fill="#42403F"/>
<path d="M15.1547 29.5042H7.98251C7.44051 29.505 6.92036 29.2907 6.53622 28.9083C6.15208 28.5259 5.93535 28.0068 5.93359 27.4648V20.3702C5.93384 19.8268 6.14976 19.3057 6.53393 18.9213C6.91809 18.537 7.4391 18.3208 7.98251 18.3203H15.1547C15.698 18.3211 16.2189 18.5373 16.603 18.9216C16.9871 19.3059 17.2031 19.8268 17.2036 20.3702V27.4648C17.2016 28.0067 16.9848 28.5257 16.6007 28.908C16.2166 29.2903 15.6966 29.5047 15.1547 29.5042ZM7.98251 20.2103C7.94086 20.2108 7.90106 20.2276 7.87169 20.2572C7.84232 20.2867 7.82573 20.3266 7.82549 20.3683V27.4629C7.82585 27.483 7.83022 27.5028 7.83836 27.5211C7.8465 27.5395 7.85823 27.556 7.87287 27.5698C7.8875 27.5835 7.90475 27.5942 7.92358 27.6012C7.94241 27.6082 7.96245 27.6113 7.98251 27.6104H15.1547C15.1747 27.6112 15.1947 27.608 15.2135 27.6009C15.2322 27.5939 15.2494 27.5832 15.264 27.5695C15.2787 27.5558 15.2904 27.5393 15.2986 27.521C15.3068 27.5027 15.3112 27.4829 15.3117 27.4629V20.3683C15.3112 20.3267 15.2945 20.2869 15.2652 20.2574C15.2359 20.228 15.1963 20.211 15.1547 20.2103H7.98251Z" fill="#42403F"/>
<path d="M28.6058 29.5042H21.4346C20.8925 29.505 20.3723 29.2907 19.988 28.9084C19.6037 28.526 19.3868 28.0069 19.3848 27.4648V20.3702C19.3853 19.8267 19.6014 19.3056 19.9857 18.9213C20.37 18.5369 20.8911 18.3208 21.4346 18.3203H28.6058C29.1493 18.3208 29.6704 18.5369 30.0548 18.9213C30.4391 19.3056 30.6552 19.8267 30.6557 20.3702V27.4648C30.654 28.0069 30.4371 28.5262 30.0527 28.9086C29.6684 29.291 29.148 29.5052 28.6058 29.5042ZM21.4346 20.2103C21.3929 20.2108 21.353 20.2276 21.3235 20.2571C21.2939 20.2866 21.2771 20.3265 21.2767 20.3683V27.4629C21.2771 27.483 21.2816 27.5028 21.2899 27.5212C21.2981 27.5396 21.3099 27.5561 21.3246 27.5698C21.3394 27.5836 21.3567 27.5943 21.3755 27.6012C21.3944 27.6082 21.4145 27.6113 21.4346 27.6105H28.6058C28.626 27.6113 28.646 27.6082 28.6649 27.6012C28.6838 27.5943 28.7011 27.5836 28.7158 27.5698C28.7305 27.5561 28.7424 27.5396 28.7506 27.5212C28.7588 27.5028 28.7633 27.483 28.7638 27.4629V20.3683C28.7633 20.3265 28.7465 20.2866 28.717 20.2571C28.6875 20.2276 28.6476 20.2108 28.6058 20.2103H21.4346Z" fill="#42403F"/>
<path d="M47.1475 50.7397H33.2213C32.9705 50.7397 32.7298 50.6401 32.5525 50.4627C32.3751 50.2853 32.2754 50.0447 32.2754 49.7938V31.0754C32.2761 30.3293 32.5729 29.6139 33.1005 29.0863C33.6281 28.5587 34.3434 28.262 35.0896 28.2612H45.2793C46.0254 28.262 46.7408 28.5587 47.2684 29.0863C47.796 29.6139 48.0927 30.3293 48.0935 31.0754V49.7938C48.0935 50.0447 47.9938 50.2853 47.8164 50.4627C47.639 50.6401 47.3984 50.7397 47.1475 50.7397ZM34.1673 48.8479H46.2016V31.0754C46.2013 30.8309 46.1041 30.5964 45.9312 30.4235C45.7583 30.2506 45.5238 30.1534 45.2793 30.1531H35.0896C34.845 30.1534 34.6106 30.2506 34.4377 30.4235C34.2648 30.5964 34.1675 30.8309 34.1673 31.0754V48.8479Z" fill="#42403F"/>
<path d="M18.5025 57.0803C17.0619 57.0803 15.6537 56.6531 14.4559 55.8527C13.2581 55.0524 12.3245 53.9148 11.7732 52.5839C11.2219 51.2529 11.0777 49.7884 11.3587 48.3755C11.6398 46.9626 12.3335 45.6647 13.3521 44.6461C14.3708 43.6274 15.6686 42.9337 17.0815 42.6527C18.4945 42.3716 19.959 42.5158 21.2899 43.0671C22.6209 43.6184 23.7584 44.552 24.5588 45.7498C25.3591 46.9476 25.7863 48.3559 25.7863 49.7965C25.7833 51.7273 25.015 53.5783 23.6496 54.9436C22.2843 56.3089 20.4334 57.0773 18.5025 57.0803ZM18.5025 44.4046C17.4361 44.4046 16.3937 44.7208 15.507 45.3133C14.6203 45.9058 13.9292 46.7479 13.5211 47.7331C13.113 48.7183 13.0062 49.8025 13.2142 50.8484C13.4223 51.8943 13.9358 52.8551 14.6899 53.6091C15.444 54.3632 16.4047 54.8767 17.4506 55.0848C18.4966 55.2928 19.5807 55.186 20.5659 54.7779C21.5512 54.3698 22.3933 53.6788 22.9857 52.7921C23.5782 51.9054 23.8944 50.8629 23.8944 49.7965C23.8934 48.3663 23.3252 46.995 22.3144 45.9833C21.3035 44.9716 19.9327 44.4021 18.5025 44.3999V44.4046Z" fill="#42403F"/>
<path d="M18.5016 53.6076C17.7472 53.6076 17.0098 53.3839 16.3826 52.9648C15.7554 52.5457 15.2665 51.95 14.9778 51.2531C14.6892 50.5562 14.6136 49.7893 14.7608 49.0495C14.908 48.3096 15.2712 47.63 15.8046 47.0966C16.338 46.5632 17.0176 46.1999 17.7575 46.0528C18.4973 45.9056 19.2642 45.9811 19.9611 46.2698C20.6581 46.5585 21.2537 47.0474 21.6728 47.6746C22.0919 48.3018 22.3156 49.0392 22.3156 49.7935C22.3144 50.8047 21.9121 51.7741 21.1971 52.4891C20.4821 53.2041 19.5127 53.6063 18.5016 53.6076ZM18.5016 47.8714C18.1214 47.8714 17.7498 47.9841 17.4337 48.1953C17.1176 48.4065 16.8712 48.7067 16.7257 49.058C16.5802 49.4092 16.5422 49.7957 16.6163 50.1685C16.6905 50.5414 16.8736 50.8839 17.1424 51.1527C17.4112 51.4215 17.7537 51.6046 18.1266 51.6788C18.4994 51.7529 18.8859 51.7149 19.2371 51.5694C19.5884 51.4239 19.8886 51.1775 20.0998 50.8614C20.311 50.5453 20.4237 50.1737 20.4237 49.7935C20.4232 49.2839 20.2205 48.7953 19.8602 48.4349C19.4998 48.0746 19.0112 47.8719 18.5016 47.8714Z" fill="#42403F"/>
<path d="M64.1437 45.0032H59.3014C59.0505 45.0032 58.8099 44.9035 58.6325 44.7261C58.4551 44.5487 58.3555 44.3081 58.3555 44.0572C58.3555 43.8063 58.4551 43.5657 58.6325 43.3883C58.8099 43.2109 59.0505 43.1113 59.3014 43.1113H64.1437C64.6933 43.1105 65.2202 42.8918 65.6087 42.5031C65.9973 42.1143 66.2158 41.5874 66.2163 41.0377C66.2163 40.7869 66.3159 40.5463 66.4933 40.3689C66.6707 40.1915 66.9113 40.0918 67.1622 40.0918C67.4131 40.0918 67.6537 40.1915 67.8311 40.3689C68.0085 40.5463 68.1082 40.7869 68.1082 41.0377C68.1062 42.0887 67.6879 43.096 66.9449 43.8392C66.2018 44.5824 65.1946 45.0009 64.1437 45.0032Z" fill="#42403F"/>
<path d="M33.2451 14.8115H17.6569C17.406 14.8115 17.1654 14.7119 16.988 14.5345C16.8106 14.3571 16.7109 14.1164 16.7109 13.8656V10.5235C16.7119 9.70849 17.0362 8.9271 17.6125 8.35077C18.1888 7.77444 18.9702 7.45022 19.7853 7.44922H31.1205C31.9356 7.45022 32.717 7.77444 33.2933 8.35077C33.8696 8.9271 34.1939 9.70849 34.1949 10.5235V13.8656C34.1949 13.9901 34.1703 14.1134 34.1225 14.2284C34.0747 14.3435 34.0047 14.4479 33.9165 14.5358C33.8282 14.6237 33.7235 14.6933 33.6083 14.7406C33.4931 14.7879 33.3697 14.812 33.2451 14.8115ZM18.6028 12.9196H32.2992V10.5235C32.2989 10.21 32.1743 9.90941 31.9526 9.68771C31.7309 9.46602 31.4303 9.34136 31.1168 9.34111H19.7853C19.4718 9.34161 19.1714 9.46635 18.9497 9.68799C18.7281 9.90963 18.6033 10.2101 18.6028 10.5235V12.9196Z" fill="#42403F"/>
</svg>
