<svg width="70" height="70" viewBox="0 0 70 70" fill="none" xmlns="http://www.w3.org/2000/svg">
<path d="M13.0934 47.126H13.0823C12.516 47.126 12.0625 47.5851 12.0625 48.1514C12.0625 48.7177 12.5271 49.1768 13.0934 49.1768C13.6597 49.1768 14.1188 48.7177 14.1188 48.1514C14.1188 47.5851 13.6597 47.126 13.0934 47.126Z" fill="#42403F"/>
<path d="M21.859 47.126H21.848C21.2818 47.126 20.8281 47.5851 20.8281 48.1514C20.8281 48.7177 21.2927 49.1768 21.859 49.1768C22.4253 49.1768 22.8844 48.7177 22.8844 48.1514C22.8844 47.5851 22.4253 47.126 21.859 47.126Z" fill="#42403F"/>
<path d="M58.027 47.126H58.016C57.4497 47.126 56.9961 47.5851 56.9961 48.1514C56.9961 48.7177 57.4607 49.1768 58.027 49.1768C58.5932 49.1768 59.0523 48.7177 59.0523 48.1514C59.0523 47.5851 58.5932 47.126 58.027 47.126Z" fill="#42403F"/>
<path d="M69.0577 34.729L67.6791 33.3503L64.9016 25.0178C65.316 24.8862 65.6164 24.4986 65.6164 24.0407C65.6164 23.4744 65.1573 23.0153 64.591 23.0153H54.6568V18.5613C54.6568 17.3915 53.7053 16.4399 52.5355 16.4399H2.12133C0.951564 16.4399 0 17.3916 0 18.5613V42.6722C0 43.842 0.951564 44.7936 2.12133 44.7936H3.28782V47.0554C3.28782 48.2252 4.23938 49.1768 5.40915 49.1768H7.77043C8.25113 51.6705 10.4489 53.5605 13.0809 53.5605C14.8831 53.5605 16.4812 52.6738 17.4646 51.3145C18.4482 52.6738 20.0463 53.5605 21.8485 53.5605C24.4805 53.5605 26.6784 51.6705 27.159 49.1768H52.7046C53.1853 51.6705 55.3831 53.5605 58.0151 53.5605C60.9977 53.5605 63.4242 51.1339 63.4242 48.1514C63.4242 48.1279 63.4227 48.1048 63.4225 48.0814H67.8787C69.0484 48.0814 70 47.1298 70 45.96V37.0039C70.0001 36.1446 69.6655 35.3367 69.0577 34.729ZM7.77043 47.1261H5.40915C5.37019 47.1261 5.3386 47.0945 5.3386 47.0556V44.7937H8.84476C8.31429 45.4617 7.93791 46.2569 7.77043 47.1261ZM13.0809 51.51C11.229 51.51 9.7225 50.0034 9.7225 48.1516C9.7225 46.3069 11.2178 44.8052 13.0599 44.7937H13.1021C14.9442 44.805 16.4395 46.3068 16.4395 48.1516C16.4394 50.0034 14.9327 51.51 13.0809 51.51ZM21.8487 51.51C19.9968 51.51 18.4902 50.0034 18.4902 48.1516C18.4902 46.3069 19.9854 44.8052 21.8276 44.7937H21.8697C23.7119 44.805 25.2072 46.3068 25.2072 48.1516C25.207 50.0034 23.7005 51.51 21.8487 51.51ZM52.7048 47.1261H27.1591C26.9916 46.2569 26.6152 45.4616 26.0846 44.7936H45.9596C46.5259 44.7936 46.985 44.3345 46.985 43.7682C46.985 43.2019 46.5259 42.7428 45.9596 42.7428H2.12133C2.08237 42.7428 2.05079 42.7112 2.05079 42.6722V18.5613C2.05079 18.5223 2.08237 18.4907 2.12133 18.4907H52.5354C52.5743 18.4907 52.6059 18.5223 52.6059 18.5613V42.7429H50.3439C49.7776 42.7429 49.3185 43.202 49.3185 43.7683C49.3185 44.3346 49.7776 44.7937 50.3439 44.7937H53.7791C53.2485 45.4617 52.8723 46.2569 52.7048 47.1261ZM65.7255 33.9747H59.1112C59.0722 33.9747 59.0406 33.9431 59.0406 33.9042V29.4497H64.2172L65.7255 33.9747ZM58.0152 51.51C56.1633 51.51 54.6568 50.0034 54.6568 48.1516C54.6568 46.3069 56.1521 44.8052 57.9943 44.7937H58.0153C58.0177 44.7937 58.02 44.7934 58.0225 44.7933C59.871 44.7971 61.3739 46.3021 61.3739 48.1515C61.3736 50.0034 59.8671 51.51 58.0152 51.51ZM67.9493 45.9603C67.9493 45.9993 67.9178 46.0309 67.8788 46.0309H62.9908C62.1644 44.0994 60.2455 42.7425 58.0152 42.7425C58.0081 42.7425 58.0013 42.743 57.9942 42.743H54.6568V25.137V25.1365C54.6568 25.0975 54.6884 25.066 54.7274 25.066H62.7559L63.5336 27.3989H58.0152C57.4489 27.3989 56.9898 27.858 56.9898 28.4243V33.9042C56.9898 35.0739 57.9414 36.0255 59.1112 36.0255H67.454L67.6077 36.1792C67.8279 36.3996 67.9493 36.6924 67.9493 37.004V39.4551H66.7829C66.2166 39.4551 65.7575 39.9142 65.7575 40.4805C65.7575 41.0468 66.2166 41.5059 66.7829 41.5059H67.9493V45.9603Z" fill="#42403F"/>
<path d="M49.2504 38.3589H5.41211C4.84582 38.3589 4.38672 38.818 4.38672 39.3843C4.38672 39.9506 4.84582 40.4097 5.41211 40.4097H49.2504C49.8167 40.4097 50.2758 39.9506 50.2758 39.3843C50.2758 38.818 49.8167 38.3589 49.2504 38.3589Z" fill="#42403F"/>
</svg>
