<svg width="18" height="18" viewBox="0 0 18 18" fill="none" xmlns="http://www.w3.org/2000/svg">
<path d="M9.70312 9L17.5078 1.19531C17.6016 1.10156 17.6484 0.984375 17.6484 0.84375C17.6484 0.703125 17.6016 0.585938 17.5078 0.492188C17.4141 0.398437 17.2969 0.351562 17.1562 0.351562C17.0156 0.351562 16.8984 0.398437 16.8047 0.492188L9 8.29688L1.19531 0.492188C1.10156 0.398437 0.984375 0.351562 0.84375 0.351562C0.703125 0.351562 0.585938 0.398437 0.492188 0.492188C0.398437 0.585938 0.351562 0.703125 0.351562 0.84375C0.351562 0.984375 0.398437 1.10156 0.492188 1.19531L8.29688 9L0.492188 16.8047C0.398437 16.8984 0.351562 17.0156 0.351562 17.1562C0.351562 17.2969 0.398437 17.4141 0.492188 17.5078C0.585938 17.6016 0.703125 17.6484 0.84375 17.6484C0.984375 17.6484 1.10156 17.6016 1.19531 17.5078L9 9.70312L16.8047 17.5078C16.8984 17.6016 17.004 17.6484 17.1214 17.6484C17.2388 17.6484 17.3559 17.6016 17.4729 17.5078C17.5899 17.4141 17.6486 17.2969 17.649 17.1562C17.6494 17.0156 17.5791 16.8984 17.4381 16.8047L9.70312 9Z" fill="#A40731"/>
</svg>
