<svg width="20" height="20" viewBox="0 0 20 20" fill="none" xmlns="http://www.w3.org/2000/svg">
<path d="M4.84375 19.6094C4.58333 19.6094 4.34896 19.5313 4.14062 19.375C3.93229 19.2188 3.77604 19.0234 3.67188 18.7888C3.56771 18.5542 3.54167 18.3327 3.59375 18.1244L4.45312 12.8119L0.78125 8.98378C0.625 8.82753 0.520833 8.61919 0.46875 8.35878C0.416667 8.09836 0.416667 7.86399 0.46875 7.65565C0.625 7.1869 0.963542 6.90044 1.48438 6.79628L6.5625 5.9369L8.82812 1.09315C8.93229 0.884821 9.08854 0.715446 9.29688 0.585029C9.50521 0.454613 9.73958 0.389404 10 0.389404C10.4688 0.389404 10.8333 0.623779 11.0938 1.09253L13.4375 5.93628L18.5156 6.71753C18.776 6.76961 18.9844 6.87378 19.1406 7.03003C19.2969 7.18628 19.4142 7.3817 19.4925 7.61628C19.5708 7.85086 19.584 8.08524 19.5319 8.3194C19.4798 8.55357 19.3756 8.77503 19.2194 8.98378L15.5475 12.7338L16.4069 18.1244C16.459 18.3327 16.4329 18.5542 16.3287 18.7888C16.2246 19.0234 16.0813 19.2188 15.8988 19.375C15.7162 19.5313 15.5079 19.6094 15.2738 19.6094C15.0396 19.6094 14.7921 19.5573 14.5312 19.4532L10 16.9532L5.46875 19.4532C5.26042 19.5573 5.05208 19.6094 4.84375 19.6094ZM1.5625 8.28128L5.3125 12.1094C5.52083 12.3177 5.59896 12.5782 5.54688 12.8907L4.6875 18.2813C4.6875 18.3334 4.71354 18.4115 4.76562 18.5157C4.81771 18.5677 4.86979 18.5677 4.92188 18.5157L9.60938 15.9375C9.86979 15.7813 10.1302 15.7813 10.3906 15.9375L15.1562 18.4375H15.2344C15.2865 18.3854 15.3125 18.3334 15.3125 18.2813L14.4531 12.8125C14.4531 12.5 14.5312 12.2396 14.6875 12.0313L18.4375 8.20315C18.4896 8.15107 18.5156 8.07295 18.5156 7.96878L18.3594 7.81253L13.125 7.03128C12.8646 6.9792 12.6562 6.82295 12.5 6.56253L10.1562 1.56253C10.1562 1.51045 10.1171 1.4844 10.0387 1.4844C9.96042 1.4844 9.89521 1.51045 9.84312 1.56253L7.49937 6.56253C7.34312 6.82295 7.13479 6.9792 6.87437 7.03128L1.64 7.89065C1.58792 7.89065 1.56188 7.9167 1.56188 7.96878L1.48375 8.12503C1.48375 8.17711 1.50979 8.2292 1.56188 8.28128H1.5625Z" fill="#E7E5E4"/>
</svg>
