<svg width="32" height="25" viewBox="0 0 32 25" fill="none" xmlns="http://www.w3.org/2000/svg">
<path d="M10.25 10.75C11.75 10.75 13.0417 10.229 14.125 9.18705C15.2084 8.14505 15.75 6.87405 15.75 5.37405C15.75 3.87405 15.2084 2.60305 14.125 1.56105C13.0417 0.519047 11.75 -0.00195313 10.25 -0.00195312C8.75005 -0.00195312 7.45838 0.519047 6.37505 1.56105C5.29171 2.60305 4.75005 3.87405 4.75005 5.37405C4.75005 6.87405 5.29171 8.14505 6.37505 9.18705C7.45838 10.229 8.75005 10.75 10.25 10.75ZM10.25 1.75005C11.3334 1.75005 12.2294 2.10438 12.938 2.81305C13.6467 3.52171 14.001 4.37605 14.001 5.37605C14.001 6.37605 13.6467 7.23038 12.938 7.93905C12.2294 8.64771 11.3334 9.00205 10.25 9.00205C9.16671 9.00205 8.27071 8.64771 7.56205 7.93905C6.85338 7.23038 6.49905 6.37605 6.49905 5.37605C6.49905 4.37605 6.85338 3.52171 7.56205 2.81305C8.27071 2.10438 9.16671 1.75005 10.25 1.75005ZM23.25 13.25C24.5834 13.25 25.7084 12.7917 26.625 11.875C27.5417 10.9584 28 9.87505 28 8.62505C28 7.37505 27.5417 6.29171 26.625 5.37505C25.7084 4.45838 24.5834 4.00005 23.25 4.00005C21.9167 4.00005 20.7917 4.45838 19.875 5.37505C18.9584 6.29171 18.5 7.37505 18.5 8.62505C18.5 9.87505 18.9584 10.9584 19.875 11.875C20.7917 12.7917 21.9167 13.25 23.25 13.25ZM23.25 5.75005C24.0834 5.75005 24.7917 6.02105 25.375 6.56305C25.9584 7.10505 26.25 7.77171 26.25 8.56305C26.25 9.35438 25.9584 10.042 25.375 10.626C24.7917 11.21 24.0834 11.5017 23.25 11.501C22.4167 11.5004 21.7084 11.2087 21.125 10.626C20.5417 10.0434 20.25 9.35571 20.25 8.56305C20.25 7.77038 20.5417 7.10371 21.125 6.56305C21.7084 6.02238 22.4167 5.75138 23.25 5.75005ZM23.5 14.375H23C21.5 14.375 20.0834 14.7917 18.75 15.625C18.0834 14.7084 17.229 13.9584 16.187 13.375C15.145 12.7917 13.999 12.5 12.749 12.5H7.74905C6.41571 12.5 5.20738 12.8127 4.12405 13.438C3.04071 14.0634 2.18638 14.9177 1.56105 16.001C0.935714 17.0844 0.623047 18.2927 0.623047 19.626V23.501C0.623047 23.9177 0.769047 24.272 1.06105 24.564C1.35305 24.856 1.70738 25.002 2.12405 25.002H29.999C30.4157 25.002 30.77 24.856 31.062 24.564C31.354 24.272 31.5 23.9177 31.5 23.501V22.251C31.4167 20.8344 31.0207 19.5217 30.312 18.313C29.6034 17.1044 28.645 16.146 27.437 15.438C26.229 14.73 24.9164 14.3757 23.499 14.375H23.5ZM16.625 23.25H2.37505V19.625C2.37505 18.125 2.89605 16.854 3.93805 15.812C4.98005 14.77 6.25105 14.249 7.75105 14.249H12.751C14.251 14.249 15.522 14.77 16.564 15.812C17.606 16.854 18.127 18.125 18.127 19.625V23.25H16.627H16.625ZM29.625 23.25H19.875V19.625C19.875 18.875 19.75 18.0834 19.5 17.25C20.5834 16.5 21.75 16.125 23 16.125H23.5C25.1667 16.125 26.6044 16.7294 27.813 17.938C29.0217 19.1467 29.626 20.5844 29.626 22.251V23.251L29.625 23.25Z" fill="#A40731"/>
</svg>
