<svg width="20" height="21" viewBox="0 0 20 21" fill="none" xmlns="http://www.w3.org/2000/svg">
<path d="M19.0625 9.95312H10.5469V1.4375C10.5469 1.28125 10.4948 1.15104 10.3906 1.04688C10.2865 0.942708 10.1563 0.890625 10 0.890625C9.84375 0.890625 9.71354 0.942708 9.60938 1.04688C9.50521 1.15104 9.45313 1.28125 9.45313 1.4375V9.95312H0.9375C0.78125 9.95312 0.651042 10.0052 0.546875 10.1094C0.442708 10.2135 0.390625 10.3438 0.390625 10.5C0.390625 10.6562 0.442708 10.7865 0.546875 10.8906C0.651042 10.9948 0.78125 11.0469 0.9375 11.0469H9.45313V19.5625C9.45313 19.7188 9.50521 19.849 9.60938 19.9531C9.71354 20.0573 9.84375 20.1094 10 20.1094C10.1563 20.1094 10.2996 20.0573 10.43 19.9531C10.5604 19.849 10.6256 19.7188 10.6256 19.5625V11.0469H19.0631C19.2194 11.0469 19.3496 10.9948 19.4538 10.8906C19.5579 10.7865 19.61 10.6562 19.61 10.5C19.61 10.3438 19.5579 10.2135 19.4538 10.1094C19.3496 10.0052 19.2194 9.95312 19.0631 9.95312H19.0625Z" fill="#A40731"/>
</svg>
