<svg width="800" height="368" viewBox="0 0 800 368" fill="none" xmlns="http://www.w3.org/2000/svg">
<g clip-path="url(#clip0_590_918)">
<path d="M151.5 149.188C143.188 149.188 135.875 152.25 130.563 157.375C124.938 152.25 117.688 149.188 109.625 149.188C104.625 149.188 99.9375 150.375 95.6875 152.5C94.3125 150.375 91.625 148.875 88.6875 148.875C83.8125 148.875 79.5625 153.125 79.5625 158.125V216.063C79.5625 220.938 83.8125 225 88.6875 225C93.875 225 97.8125 220.875 97.8125 216.063V177.875C97.8125 171.938 103.125 167.437 109.625 167.437C116.125 167.437 121.438 172 121.438 177.875V215.625C121.438 220.812 125.375 224.75 130.563 224.75C135.438 224.75 139.5 220.812 139.5 215.625V177.875C139.5 171.938 144.813 167.437 151.5 167.437C157.688 167.437 163 172 163 177.875V215.625C163 220.812 167.25 224.75 172.25 224.75C177.25 224.75 181.188 220.812 181.188 215.625V177.875C181.25 162.063 167.75 149.188 151.5 149.188Z" fill="black"/>
<path d="M205.187 147.562C199.875 147.562 195.625 151.687 195.625 156.812V215.312C195.625 220.437 199.875 224.687 205.187 224.687C210.188 224.687 214.438 220.437 214.438 215.312V156.812C214.438 151.625 210.188 147.562 205.187 147.562ZM205.187 116.312C199.875 116.312 195.625 120.437 195.625 125.687V126.437C195.625 131.437 199.875 135.687 205.187 135.687C210.188 135.687 214.438 131.437 214.438 126.437V125.687C214.438 120.375 210.188 116.312 205.187 116.312Z" fill="black"/>
<path d="M264.188 149.062C257.375 149.062 251.125 151.062 245.688 154.5C244.5 150.875 241.125 148.312 237.188 148.312C232.188 148.312 228.062 152.437 228.062 157.437V215.375C228.062 220.375 232.188 224.5 237.188 224.5C242.188 224.5 246.313 220.375 246.313 215.375V189.625C246.313 179.187 252.375 167.313 264.188 167.313C273.75 167.313 281.625 175.937 281.625 186.75V215.375C281.625 220.375 285.562 224.5 290.75 224.5C295.75 224.5 299.687 220.375 299.687 215.375V186.75C299.625 165.875 283.75 149.062 264.188 149.062Z" fill="black"/>
<path d="M322.063 147.562C316.75 147.562 312.5 151.687 312.5 156.812V215.312C312.5 220.437 316.75 224.687 322.063 224.687C327.063 224.687 331.312 220.437 331.312 215.312V156.812C331.312 151.625 327.063 147.562 322.063 147.562ZM322.063 116.312C316.75 116.312 312.5 120.437 312.5 125.687V126.437C312.5 131.437 316.75 135.687 322.063 135.687C327.063 135.687 331.312 131.437 331.312 126.437V125.687C331.312 120.375 327.063 116.312 322.063 116.312Z" fill="black"/>
<path d="M496.063 166.938C485.313 166.938 476.688 175.562 476.688 186.312C476.688 197.062 485.313 205.688 496.063 205.688C506.813 205.688 515.438 197.062 515.438 186.312C515.438 175.562 506.875 166.938 496.063 166.938Z" fill="black"/>
<path d="M663.938 167.375C656.938 167.375 650.875 170.875 647.25 176.5H679.375C676.375 170.75 670.75 167.375 663.938 167.375Z" fill="black"/>
<path d="M558.688 186.375C558.688 197.437 567.625 206.375 578.688 206.375C589.75 206.375 598.688 197.437 598.688 186.375C598.688 175.312 589.75 166.375 578.688 166.375C567.625 166.312 558.688 175.312 558.688 186.375Z" fill="black"/>
<path d="M661.125 116.312H618.437V125.688V215.312C618.437 220.312 614.375 224.438 609.187 224.438C605.062 224.438 601.625 221.875 600.375 218.062C594.312 222.312 586.75 224.75 578.687 224.75C557.625 224.75 540.312 207.625 540.312 186.375C540.312 165.313 557.625 148 578.687 148C586.562 148 593.875 150.437 600.062 154.375V125.688V116.312H419.312C382.313 116.312 351.75 145.562 349.625 182.062C349.563 183.375 349.5 184.75 349.5 186.125C349.5 187.5 349.563 188.875 349.625 190.187C351.75 226.937 382.313 255.938 419.312 255.938H661.187C699.562 255.938 731 224.75 731.312 186.375C730.937 147.75 699.5 116.312 661.125 116.312ZM399.062 186.688C399.062 191.812 401.312 197 405.125 200.5C408.937 204.312 413.937 206.25 419.062 206.125C424.062 206.125 428.75 204.187 432.375 200.812C435.875 197.312 441.75 197.625 445.125 201.25C448.625 204.875 448.312 210.625 444.687 214.125C437.875 220.5 428.937 224.125 419.5 224.312H418.875C408.875 224.312 399.625 220.5 392.5 213.687C385.187 206.562 381.125 197.188 380.812 187C380.687 177 384.312 167.312 391.562 160C398.562 152.687 407.937 148.625 418.125 148.312C428.25 148.187 437.812 151.937 445.125 159.062C448.75 162.375 448.937 168.312 445.437 171.812C441.937 175.437 436.187 175.625 432.562 172.125C428.75 168.5 423.75 166.5 418.437 166.5C413.125 166.5 408.312 168.75 404.5 172.562C401 176.375 398.875 181.375 399.062 186.688ZM496.062 224.438C475.125 224.438 458 207.438 458 186.375C458 165.438 475.125 148.312 496.062 148.312C517 148.312 534.125 165.437 534.25 186.5C534.125 207.437 517 224.438 496.062 224.438ZM700 181.938C700 183.312 699.375 184.812 698.812 186.312C697.625 189.188 695 191.75 691.375 191.75H644.687C646.812 200.375 654.562 207.062 663.938 207.062C668.812 207.062 675.938 205.062 679.875 201.312C683.5 197.812 689.25 197.812 692.75 201.437C696.375 204.937 696.25 210.812 692.625 214.312C684.25 222.375 672.625 225.062 663.938 225.062C642.875 225.062 626.062 208.063 626.062 187C626.062 166.25 642.875 148.938 663.938 148.938C666.188 148.938 668.312 149.062 670.625 149.562C680.937 151.562 689.75 157.875 695.188 167C697.625 171.313 700.312 176.938 700 181.938Z" fill="black"/>
</g>
<defs>
<clipPath id="clip0_590_918">
<rect width="800" height="367.5" fill="white"/>
</clipPath>
</defs>
</svg>
