<svg width="18" height="24" viewBox="0 0 18 24" fill="none" xmlns="http://www.w3.org/2000/svg">
<path d="M10.5938 14.8125C11.0312 14.375 11.25 13.8125 11.25 13.125C11.25 12.4375 11.0312 11.875 10.5938 11.4375C10.1563 11 9.60925 10.7812 8.95275 10.7812C8.29625 10.7812 7.74925 11 7.31175 11.4375C6.87425 11.875 6.6555 12.4375 6.6555 13.125C6.6555 13.8125 6.87425 14.375 7.31175 14.8125C6.81175 15.0625 6.4055 15.375 6.093 15.75C5.343 16.6875 4.968 17.7813 4.968 19.0312C4.968 19.2813 5.12425 19.4845 5.43675 19.641C5.74925 19.7975 6.1555 19.9695 6.6555 20.157C7.468 20.407 8.24925 20.532 8.99925 20.532C10.2492 20.532 11.468 20.2195 12.6555 19.5945C12.843 19.4695 12.9368 19.2507 12.9368 18.9382C12.9368 17.6257 12.5618 16.5632 11.8118 15.7507C11.3743 15.3132 10.968 15.0007 10.593 14.8132L10.5938 14.8125ZM9 12.0938C9.3125 12.0938 9.5625 12.1875 9.75 12.375C9.9375 12.5625 10.0312 12.797 10.0312 13.0785C10.0312 13.36 9.9375 13.5945 9.75 13.782C9.5625 13.9695 9.328 14.0632 9.0465 14.0632C8.765 14.0632 8.515 13.9695 8.2965 13.782C8.078 13.5945 7.9685 13.36 7.968 13.0785C7.9675 12.797 8.06125 12.5625 8.24925 12.375C8.43725 12.1875 8.68725 12.0938 8.99925 12.0938H9ZM9 19.2188C8.25 19.2188 7.375 19.0312 6.375 18.6562C6.4375 17.8437 6.70325 17.1562 7.17225 16.5938C7.64125 16.0312 8.235 15.75 8.9535 15.75C9.672 15.75 10.2657 16.0312 10.7347 16.5938C11.2037 17.1562 11.5007 17.8437 11.6257 18.6562C11.3132 18.7813 10.9225 18.9062 10.4535 19.0312C9.9845 19.1563 9.5 19.2188 9 19.2188V19.2188ZM16.9688 7.59375L9.9375 0.9375C9.625 0.625 9.1875 0.46875 8.625 0.46875H2.625C2.0625 0.46875 1.5625 0.6875 1.125 1.125C0.6875 1.5625 0.46875 2.0625 0.46875 2.625V21.2812C0.46875 21.9062 0.6875 22.422 1.125 22.8285C1.5625 23.235 2.0625 23.4382 2.625 23.4382H15.375C15.9375 23.4382 16.4375 23.2195 16.875 22.782C17.3125 22.3445 17.5312 21.8445 17.5312 21.282V8.907C17.5312 8.3445 17.3438 7.907 16.9688 7.5945V7.59375ZM9.65625 2.4375L15.375 7.78125H10.2188C10.0937 7.78125 9.96875 7.73425 9.84375 7.64025C9.71875 7.54625 9.65625 7.43675 9.65625 7.31175V2.43675V2.4375ZM15.375 22.2188H2.625C2.4375 22.2188 2.25 22.1405 2.0625 21.984C1.875 21.8275 1.78125 21.6243 1.78125 21.3743V2.718C1.78125 2.468 1.875 2.24925 2.0625 2.06175C2.25 1.87425 2.4375 1.7805 2.625 1.7805H8.34375V7.31175C8.34375 7.81175 8.53125 8.23375 8.90625 8.57775C9.28125 8.92175 9.71875 9.09375 10.2188 9.09375H16.3125V21.2812C16.25 21.5313 16.1405 21.75 15.984 21.9375C15.8275 22.125 15.6243 22.2188 15.3743 22.2188H15.375Z" fill="#A40731"/>
</svg>
