<svg width="24" height="18" viewBox="0 0 24 18" fill="none" xmlns="http://www.w3.org/2000/svg">
<path d="M11.4383 4.03127H5.157C4.9695 4.03127 4.81325 4.09377 4.68825 4.21877C4.56325 4.34377 4.50075 4.50002 4.50075 4.68752C4.50075 4.87502 4.56325 5.04702 4.68825 5.20352C4.81325 5.36002 4.9695 5.43827 5.157 5.43827H11.4383C11.6258 5.43827 11.7978 5.36002 11.9543 5.20352C12.1108 5.04702 12.189 4.87502 12.189 4.68752C12.189 4.50002 12.1108 4.34377 11.9543 4.21877C11.7978 4.09377 11.6258 4.03127 11.4383 4.03127ZM5.157 8.34377H8.06325C8.25075 8.34377 8.407 8.28127 8.532 8.15627C8.657 8.03127 8.7195 7.87502 8.7195 7.68752C8.7195 7.50002 8.657 7.32802 8.532 7.17152C8.407 7.01502 8.25075 6.93677 8.06325 6.93677H5.157C4.9695 6.93677 4.81325 7.01502 4.68825 7.17152C4.56325 7.32802 4.50075 7.50002 4.50075 7.68752C4.50075 7.87502 4.56325 8.03127 4.68825 8.15627C4.81325 8.28127 4.9695 8.34377 5.157 8.34377ZM10.032 9.93752H5.157C4.9695 9.93752 4.81325 10.0158 4.68825 10.1723C4.56325 10.3288 4.50075 10.5008 4.50075 10.6883C4.50075 10.8758 4.56325 11.032 4.68825 11.157C4.81325 11.282 4.9695 11.3445 5.157 11.3445H10.032C10.2195 11.3445 10.3758 11.282 10.5008 11.157C10.6258 11.032 10.6883 10.8758 10.6883 10.6883C10.6883 10.5008 10.6258 10.3288 10.5008 10.1723C10.3758 10.0158 10.2195 9.93752 10.032 9.93752ZM18.1882 3.46877C17.7507 3.40627 17.3445 3.46877 16.9695 3.65627C16.5945 3.84377 16.3132 4.12502 16.1257 4.50002C16.0007 4.68752 15.9695 4.85952 16.032 5.01602C16.0945 5.17252 16.204 5.29752 16.3605 5.39102C16.517 5.48452 16.6732 5.51577 16.8292 5.48477C16.9852 5.45377 17.126 5.34427 17.2515 5.15627C17.439 4.90627 17.689 4.78127 18.0015 4.78127C18.189 4.78127 18.3297 4.84377 18.4237 4.96877C18.5177 5.09377 18.596 5.25002 18.6585 5.43752C18.6585 5.75002 18.5177 5.96877 18.2362 6.09377C17.9547 6.21877 17.7202 6.42202 17.5327 6.70352C17.3452 6.98502 17.2515 7.31327 17.2515 7.68827V8.15702C17.2515 8.34452 17.3297 8.50077 17.4862 8.62577C17.6427 8.75077 17.8148 8.81327 18.0023 8.81327C18.1898 8.81327 18.346 8.75077 18.471 8.62577C18.596 8.50077 18.6585 8.34452 18.6585 8.15702V7.68827C18.6585 7.62577 18.6898 7.54752 18.7523 7.45352C18.8148 7.35952 18.8773 7.31252 18.9398 7.31252C19.3148 7.12502 19.596 6.84377 19.7835 6.46877C19.971 6.09377 20.0335 5.68752 19.971 5.25002C19.9085 4.81252 19.7052 4.42177 19.3612 4.07777C19.0172 3.73377 18.6265 3.53052 18.189 3.46802L18.1882 3.46877ZM17.907 10.125C17.657 10.125 17.4382 10.2188 17.2507 10.4063C17.0632 10.5938 16.9695 10.8125 16.9695 11.0625C16.9695 11.3125 17.0632 11.5313 17.2507 11.7188C17.4382 11.9063 17.6727 12 17.9542 12C18.2357 12 18.4702 11.9063 18.6577 11.7188C18.8452 11.5313 18.939 11.3125 18.939 11.0625C18.939 10.8125 18.8452 10.5938 18.6577 10.4063C18.4702 10.2188 18.2202 10.125 17.9077 10.125H17.907ZM20.7195 0.562518H3.282C2.4695 0.562518 1.7975 0.828268 1.266 1.35977C0.7345 1.89127 0.46875 2.53202 0.46875 3.28202V15.7508C0.46875 16.4383 0.75 16.9383 1.3125 17.2508C1.5625 17.3758 1.82825 17.4383 2.10975 17.4383C2.39125 17.4383 2.68825 17.3758 3.00075 17.2508L7.31325 14.7195L7.50075 14.6258H20.8132C21.5632 14.6258 22.204 14.36 22.7355 13.8285C23.267 13.297 23.5327 12.6563 23.5327 11.9063V3.37502C23.5327 2.56252 23.267 1.89052 22.7355 1.35902C22.204 0.827517 21.532 0.561768 20.7195 0.561768V0.562518ZM22.2195 11.9063C22.2195 12.3438 22.0787 12.7033 21.7972 12.9848C21.5157 13.2663 21.1875 13.407 20.8125 13.407H7.40625C7.15625 13.407 6.875 13.4695 6.5625 13.5945L2.25 16.1258C2.125 16.1883 2.03125 16.1883 1.96875 16.1258C1.84375 16.0633 1.78125 15.9695 1.78125 15.8445V3.37577C1.78125 2.93827 1.922 2.57877 2.2035 2.29727C2.485 2.01577 2.8445 1.87502 3.282 1.87502H20.7195C21.157 1.87502 21.5165 2.01577 21.798 2.29727C22.0795 2.57877 22.2202 2.93827 22.2202 3.37577V11.907L22.2195 11.9063Z" fill="#A40731"/>
</svg>
