<svg width="24" height="14" viewBox="0 0 24 14" fill="none" xmlns="http://www.w3.org/2000/svg">
<path d="M22.8757 11.875H21.657V5.3125C21.657 4.9375 21.5632 4.59375 21.3757 4.28125C21.1882 3.96875 20.907 3.71875 20.532 3.53125L16.2195 1.09375C15.907 0.90625 15.5632 0.8125 15.1882 0.8125C14.8132 0.8125 14.4695 0.90625 14.157 1.09375L9.0945 3.8125H4.50075C3.93825 3.8125 3.45375 4.03125 3.04725 4.46875C2.64075 4.90625 2.4375 5.40625 2.4375 5.96875V11.875H1.125C0.9375 11.875 0.78125 11.9532 0.65625 12.1097C0.53125 12.2662 0.46875 12.4382 0.46875 12.6257C0.46875 12.8132 0.53125 12.954 0.65625 13.048C0.78125 13.142 0.9375 13.189 1.125 13.189H22.875C23.0625 13.189 23.2187 13.1265 23.3438 13.0015C23.4688 12.8765 23.5312 12.7203 23.5312 12.5328C23.5312 12.3453 23.4688 12.189 23.3438 12.064C23.2187 11.939 23.0625 11.8765 22.875 11.8765L22.8757 11.875ZM3.75075 5.96875C3.75075 5.71875 3.81325 5.5155 3.93825 5.359C4.06325 5.2025 4.25075 5.12425 4.50075 5.12425H8.62575V11.8743H3.75075V5.968V5.96875ZM9.93825 4.84375L14.8132 2.125C15.0632 2 15.3132 2 15.5632 2.125L19.9695 4.5625C20.2195 4.75 20.3445 5 20.3445 5.3125V11.875H17.4382V8.875C17.4382 8.375 17.2662 7.9375 16.9222 7.5625C16.5782 7.1875 16.1563 7 15.6562 7H14.7188C14.2187 7 13.7968 7.1875 13.4528 7.5625C13.1088 7.9375 12.9367 8.375 12.9367 8.875V11.875H9.93675V4.84375H9.93825ZM14.2507 11.875V8.875C14.2507 8.75 14.2977 8.6405 14.3917 8.5465C14.4857 8.4525 14.5952 8.4055 14.7202 8.4055H15.6577C15.7827 8.4055 15.8922 8.4525 15.9862 8.5465C16.0802 8.6405 16.1273 8.75 16.1273 8.875V11.875H14.2523H14.2507Z" fill="#A40731"/>
</svg>
