<svg width="18" height="13" viewBox="0 0 18 13" fill="none" xmlns="http://www.w3.org/2000/svg">
<path d="M16.0318 0.59375H1.96931C1.50056 0.59375 1.11375 0.746188 0.808875 1.05106C0.504 1.35594 0.351562 1.74275 0.351562 2.2115V10.8599C0.351562 11.2818 0.504 11.6568 0.808875 11.9849C1.11375 12.3131 1.50056 12.4771 1.96931 12.4771H16.0318C16.5006 12.4771 16.8874 12.3131 17.1923 11.9849C17.4971 11.6568 17.6496 11.2818 17.6496 10.8599V2.2115C17.6496 1.74275 17.4971 1.35594 17.1923 1.05106C16.8874 0.746188 16.5006 0.59375 16.0318 0.59375V0.59375ZM16.0318 1.57812C16.1724 1.57812 16.2896 1.60156 16.3834 1.64844L9.42244 5.9375C9.14119 6.07812 8.85994 6.07812 8.57869 5.9375L1.61775 1.64844C1.75838 1.60156 1.87556 1.57812 1.96931 1.57812H16.0318ZM16.0318 11.4219H1.96931C1.78181 11.4219 1.62938 11.3632 1.512 11.2458C1.39463 11.1284 1.33594 10.976 1.33594 10.7885V2.63225L8.08594 6.78069C8.36719 6.92131 8.66025 6.99163 8.96513 6.99163C9.27 6.99163 9.56306 6.92131 9.84431 6.78069L16.5943 2.63225V10.7885C16.6412 10.976 16.6059 11.1284 16.4886 11.2458C16.3712 11.3632 16.2188 11.4219 16.0313 11.4219H16.0318Z" fill="#A40731"/>
</svg>
