<svg width="18" height="15" viewBox="0 0 18 15" fill="none" xmlns="http://www.w3.org/2000/svg">
<path d="M12.2349 1.03125C11.6256 1.03125 11.0162 1.125 10.4068 1.3125C9.28181 0.46875 8.01619 0.046875 6.60994 0.046875C5.48494 0.046875 4.44187 0.328125 3.48075 0.890625C2.51962 1.45312 1.75781 2.21494 1.19531 3.17606C0.632812 4.13719 0.351562 5.18025 0.351562 6.30525C0.351562 7.7115 1.3125 9.53962 3.23438 11.7896C4.21875 12.9146 5.22656 13.9459 6.25781 14.8834C6.35156 14.9302 6.45713 14.9537 6.5745 14.9537C6.69188 14.9537 6.79744 14.9302 6.89119 14.8834L7.03181 14.7427C8.10994 13.7584 9.04744 12.7974 9.84431 11.8599C10.4537 12.5631 11.1099 13.2193 11.8131 13.8287C11.9068 13.9224 12.024 13.9693 12.1646 13.9693C12.3052 13.9693 12.399 13.9224 12.4459 13.8287C13.3365 13.1256 14.2271 12.2349 15.1177 11.1568C16.7584 9.23494 17.5787 7.66463 17.5787 6.44588C17.6256 5.4615 17.4028 4.54744 16.9104 3.70369C16.4181 2.85994 15.7618 2.20369 14.9417 1.73494C14.1216 1.26619 13.2191 1.03181 12.2344 1.03181L12.2349 1.03125ZM6.60994 13.8281C5.39119 12.7031 4.28962 11.5313 3.30525 10.3125C1.99275 8.625 1.3365 7.30069 1.3365 6.33956C1.3365 5.37844 1.57087 4.48781 2.03962 3.66769C2.50837 2.84756 3.153 2.20294 3.9735 1.73381C4.794 1.26469 5.68463 1.03031 6.64538 1.03069C7.60613 1.03106 8.48512 1.26544 9.28237 1.73381C10.0796 2.20219 10.7242 2.835 11.2162 3.63225C11.7082 4.4295 11.9426 5.32012 11.9194 6.30412C11.8961 7.28812 11.2281 8.62406 9.91519 10.3119C8.93081 11.5307 7.82925 12.7026 6.6105 13.8276L6.60994 13.8281ZM12.2349 12.8438C11.6256 12.2812 11.0631 11.7188 10.5474 11.1562C12.0943 9.1875 12.8677 7.57031 12.8677 6.30469C12.8677 5.50781 12.7271 4.75781 12.4459 4.05469C12.1646 3.35156 11.7662 2.69531 11.2506 2.08594C11.6724 2.03906 12.0006 2.01562 12.2349 2.01562C13.0318 2.01562 13.7702 2.21494 14.4501 2.61356C15.1299 3.01219 15.669 3.55125 16.0672 4.23075C16.4655 4.91025 16.6648 5.66025 16.6652 6.48075C16.6656 7.30125 16.1031 8.41462 14.9777 9.82087C14.2277 10.8521 13.3136 11.8599 12.2355 12.8443L12.2349 12.8438ZM6.60994 3.35156C5.81306 3.35156 5.13337 3.63281 4.57087 4.19531C4.00837 4.75781 3.72712 5.4375 3.72712 6.23438C3.72712 7.03125 4.00837 7.71094 4.57087 8.27344C5.13337 8.83594 5.81306 9.11719 6.60994 9.11719C7.40681 9.11719 8.0865 8.83594 8.649 8.27344C9.2115 7.71094 9.49275 7.03125 9.49275 6.23438C9.49275 5.4375 9.2115 4.75781 8.649 4.19531C8.0865 3.63281 7.40681 3.35156 6.60994 3.35156ZM6.60994 8.13281C6.09431 8.13281 5.649 7.94531 5.274 7.57031C4.899 7.19531 4.7115 6.75 4.7115 6.23438C4.7115 5.71875 4.899 5.27344 5.274 4.89844C5.649 4.52344 6.09431 4.33594 6.60994 4.33594C7.12556 4.33594 7.57088 4.52344 7.94588 4.89844C8.32088 5.27344 8.50838 5.71875 8.50838 6.23438C8.50838 6.75 8.32088 7.19531 7.94588 7.57031C7.57088 7.94531 7.12556 8.13281 6.60994 8.13281Z" fill="#A40731"/>
</svg>
