<svg width="24" height="20" viewBox="0 0 24 20" fill="none" xmlns="http://www.w3.org/2000/svg">
<path d="M17.437 4.43753L17.4362 4.43754C16.6921 4.43873 16.0379 4.68519 15.5034 5.18058C14.9642 5.68033 14.687 6.31305 14.687 7.04729C14.687 7.78032 14.9628 8.42171 15.4899 8.94829C16.0222 9.47996 16.6809 9.75018 17.4366 9.75079C18.1931 9.75139 18.8522 9.48088 19.3846 8.94789C19.9112 8.42064 20.187 7.77953 20.187 7.04729C20.187 6.31382 19.9097 5.68142 19.3711 5.18099C18.8365 4.68424 18.1818 4.43754 17.437 4.43753ZM13.6577 12.6379L13.9318 13.0148L14.327 12.7678C15.2516 12.1899 16.2229 11.9063 17.2495 11.9063H17.6236C17.6236 11.9063 17.6237 11.9063 17.6238 11.9063C18.5991 11.9068 19.4961 12.1494 20.3245 12.6349C21.1566 13.1226 21.8139 13.7799 22.3022 14.6127C22.7909 15.4461 23.0648 16.3491 23.1245 17.3283V18.2508C23.1245 18.432 23.0668 18.5702 22.9425 18.6945C22.8739 18.7631 22.801 18.8114 22.719 18.841V18.0633V17.3133C22.719 15.9269 22.2104 14.7226 21.2128 13.725C20.2153 12.7274 19.0109 12.2188 17.6245 12.2188H17.2495C16.2047 12.2188 15.2313 12.5344 14.3399 13.1514L14.0412 13.3582L14.1456 13.7062C14.3213 14.2919 14.4058 14.837 14.4058 15.3438V18.0625V18.5625H14.9058H22.0112L22.3252 18.8765H1.59255C1.41131 18.8765 1.27314 18.8188 1.14885 18.6945C1.02456 18.5702 0.966797 18.432 0.966797 18.2508V15.3445C0.966797 14.4263 1.1811 13.6072 1.60333 12.8757C2.02844 12.1393 2.60605 11.5617 3.34251 11.1366C4.07398 10.7143 4.89305 10.5 5.8113 10.5H9.5613C10.4174 10.5 11.1922 10.6988 11.8956 11.0926C12.6175 11.4967 13.2024 12.0119 13.6577 12.6379ZM1.2808 18.0625V18.5625H1.7808H12.4683H12.4698H13.5948H14.0948V18.0625V15.3438C14.0948 14.0888 13.6532 13.0076 12.7761 12.1305C11.899 11.2533 10.8177 10.8118 9.5628 10.8118H5.8128C4.55785 10.8118 3.47663 11.2533 2.59949 12.1305C1.72236 13.0076 1.2808 14.0888 1.2808 15.3438V18.0625ZM10.2467 7.15492C9.52711 7.84704 8.6825 8.18754 7.68705 8.18754C6.69159 8.18754 5.84698 7.84704 5.12741 7.15492C4.41268 6.46747 4.06205 5.64423 4.06205 4.65554C4.06205 3.66684 4.41268 2.8436 5.12741 2.15615C5.84698 1.46403 6.69159 1.12354 7.68705 1.12354C8.6825 1.12354 9.52711 1.46403 10.2467 2.15615C10.9614 2.8436 11.312 3.66684 11.312 4.65554C11.312 5.64423 10.9614 6.46747 10.2467 7.15492ZM10.0566 2.38123C9.42327 1.7479 8.6203 1.43754 7.68705 1.43754C6.75379 1.43754 5.95082 1.7479 5.31749 2.38123C4.69246 3.00627 4.3738 3.7741 4.3738 4.65704C4.3738 5.53997 4.69246 6.3078 5.31749 6.93284C5.95082 7.56617 6.75379 7.87654 7.68705 7.87654C8.6203 7.87654 9.42327 7.56617 10.0566 6.93284C10.6816 6.3078 11.0003 5.53997 11.0003 4.65704C11.0003 3.7741 10.6816 3.00627 10.0566 2.38123ZM19.6147 9.17773C19.024 9.76851 18.3087 10.0625 17.437 10.0625C16.5654 10.0625 15.8501 9.76851 15.2593 9.17773C14.6617 8.58012 14.3745 7.89329 14.3745 7.09379C14.3745 6.29429 14.6617 5.60745 15.2593 5.00984C15.8501 4.41906 16.5654 4.12504 17.437 4.12504C18.3087 4.12504 19.024 4.41906 19.6147 5.00984C20.2124 5.60745 20.4995 6.29429 20.4995 7.09379C20.4995 7.89329 20.2124 8.58012 19.6147 9.17773Z" fill="#A40731" stroke="#A40731"/>
</svg>
