<svg width="24" height="22" viewBox="0 0 24 22" fill="none" xmlns="http://www.w3.org/2000/svg">
<path d="M7.05297 7.41524L7.11403 7.4763C7.93743 8.67486 8.91403 9.8694 10.0421 11.0603C11.7479 12.8921 13.614 14.4141 15.6409 15.6231C15.7089 15.6794 15.7979 15.7334 15.9093 15.7615C16.0621 15.8 16.2114 15.778 16.3379 15.7178L16.5715 15.7159L16.7196 15.5086L17.6571 14.1961L17.6618 14.1895L17.6663 14.1828C17.8468 13.9121 18.0574 13.7824 18.311 13.7434C18.5818 13.7017 18.848 13.7585 19.1299 13.9465L19.1365 13.9509L19.1433 13.9551L22.5851 16.0946C22.8027 16.2752 22.9364 16.4891 23.0008 16.7458C23.0617 16.9886 23.0383 17.2353 22.9075 17.5055L21.0458 20.4842L21.0332 20.5043L21.0226 20.5256C20.9915 20.5877 20.9385 20.6642 20.852 20.7533C20.2811 21.2113 19.4743 21.4679 18.376 21.4679H18.2763C16.8431 21.4462 15.1439 20.9494 13.166 19.9305C11.1548 18.8944 9.16275 17.4258 7.19117 15.5158L7.19124 15.5157L7.18398 15.509C5.39862 13.8468 3.97611 12.1465 2.9096 10.4098C1.83853 8.66563 1.2153 7.08959 1.00955 5.67712C0.80589 4.27899 1.09229 3.30103 1.75933 2.63399L1.8167 2.57662L1.84707 2.51588C1.85745 2.50825 1.88447 2.49167 1.93889 2.47353L1.98664 2.45762L2.03025 2.4325L5.11035 0.659114C5.37803 0.528337 5.64637 0.497899 5.93469 0.564217C6.17158 0.618704 6.32924 0.714937 6.43775 0.84369H5.71827H5.53077H5.40054L5.28686 0.907219L2.09936 2.68847L2.02704 2.72888L1.97163 2.79046C1.25904 3.58223 1.11882 4.69488 1.38472 5.99139C1.65002 7.28502 2.2727 8.7299 3.22703 10.3204L3.22693 10.3205L3.23266 10.3296C4.32087 12.0579 5.72423 13.7306 7.43743 15.3489C9.14923 16.9659 10.8992 18.2877 12.6881 19.31C14.3467 20.2668 15.8888 20.8731 17.3101 21.1047C18.6896 21.3295 19.8435 21.2202 20.5826 20.5625L20.6347 20.5162L20.6721 20.4574L22.6409 17.3636L22.6547 17.3419L22.6662 17.3188C22.732 17.1874 22.7892 16.9901 22.7168 16.773C22.6495 16.5712 22.5029 16.4503 22.377 16.3814L19.0195 14.2363L18.8964 14.1577H18.7503H18.5155H18.3645L18.2387 14.2413L18.2386 14.2413L18.2385 14.2414L18.2381 14.2417L18.2365 14.2428L18.2299 14.2472L18.2034 14.2648L18.0977 14.3351L18.0309 14.3795L17.9814 14.4425L16.9528 15.7516C16.9524 15.7521 16.952 15.7526 16.9516 15.7531C16.7825 15.9638 16.5683 16.0883 16.2825 16.1322C15.9756 16.1794 15.7369 16.13 15.5373 16.0102L15.5373 16.0102L15.5335 16.008C13.4529 14.784 11.5212 13.2213 9.73891 11.3161L9.73892 11.3161L9.73627 11.3133C8.56665 10.0821 7.58648 8.85594 6.79299 7.6352L6.77958 7.61456L6.76421 7.59534C6.61973 7.41475 6.56165 7.19756 6.62798 6.88719C6.69954 6.55235 6.83784 6.37468 7.00572 6.27412L7.01608 6.26791L7.02612 6.26122L8.35323 5.37648C8.42812 5.35186 8.50736 5.30933 8.57889 5.23781C8.72135 5.09534 8.74877 4.92226 8.74877 4.81394V4.62644V4.4624L8.6516 4.33025L6.34945 1.19932L6.49128 0.915629C6.49732 0.924832 6.50317 0.934169 6.50885 0.943636L6.5192 0.960917L6.53091 0.977309L8.86967 4.25157C9.05213 4.52799 9.08442 4.75822 9.03113 4.97198C8.96669 5.23041 8.83143 5.44559 8.61003 5.62718L7.30206 6.49915C7.22717 6.52377 7.14793 6.5663 7.07641 6.63782C6.93394 6.78029 6.90652 6.95337 6.90652 7.06169V7.2688L7.05297 7.41524Z" fill="#A40731" stroke="#A40731"/>
</svg>
