<svg width="18" height="17" viewBox="0 0 18 17" fill="none" xmlns="http://www.w3.org/2000/svg">
<path d="M17.4365 15.5312L12.5147 11.5234C13.1709 10.6328 13.6046 9.64839 13.8157 8.57026C14.0268 7.49214 13.9682 6.42564 13.6397 5.37077C13.3112 4.31589 12.7487 3.39001 11.9522 2.59314C11.2959 1.93689 10.5575 1.4447 9.73703 1.11658C8.91653 0.788452 8.04934 0.62439 7.13547 0.62439C6.22159 0.62439 5.35441 0.788452 4.53391 1.11658C3.71341 1.4447 2.97503 1.93689 2.31878 2.59314C1.47503 3.43689 0.900719 4.4447 0.595844 5.61658C0.290969 6.78845 0.290969 7.96033 0.595844 9.1322C0.900719 10.3041 1.47503 11.3353 2.31878 12.226C2.97503 12.8822 3.71341 13.3744 4.53391 13.7025C5.35441 14.0306 6.22159 14.1947 7.13547 14.1947C8.04934 14.1947 8.90491 14.0306 9.70216 13.7025C10.4994 13.3744 11.226 12.9056 11.8818 12.2963L16.874 16.3744C16.9209 16.4213 17.0147 16.4447 17.1553 16.4447C17.2959 16.4447 17.4131 16.386 17.5068 16.2686C17.6006 16.1513 17.6475 16.0223 17.6475 15.8816C17.6475 15.741 17.5772 15.6238 17.4365 15.5301V15.5312ZM7.17091 13.2109C6.37403 13.2109 5.62403 13.0585 4.92091 12.7536C4.21778 12.4487 3.58497 12.015 3.02247 11.4525C2.27247 10.7025 1.76847 9.83533 1.51047 8.85095C1.25247 7.86658 1.25247 6.87039 1.51047 5.86239C1.76847 4.85439 2.27247 3.99883 3.02247 3.2957C3.58497 2.7332 4.21778 2.29951 4.92091 1.99464C5.62403 1.68976 6.36241 1.53733 7.13603 1.53733C7.90966 1.53733 8.64803 1.68976 9.35116 1.99464C10.0543 2.29951 10.6871 2.7332 11.2496 3.2957C11.9996 4.0457 12.5036 4.91289 12.7616 5.89726C13.0196 6.88164 13.0196 7.87783 12.7616 8.88583C12.5036 9.89383 11.9996 10.7494 11.2496 11.4525C10.6871 12.015 10.0543 12.4487 9.35116 12.7536C8.64803 13.0585 7.92147 13.2109 7.17147 13.2109H7.17091Z" fill="#A40731"/>
</svg>
