<svg width="24" height="16" viewBox="0 0 24 16" fill="none" xmlns="http://www.w3.org/2000/svg">
<path d="M19.875 3.125H15.75V3.03125C15.75 2.40625 15.5312 1.875 15.0938 1.4375C14.6563 1 14.125 0.78125 13.5 0.78125H2.8125C2.125 0.78125 1.5625 1 1.125 1.4375C0.6875 1.875 0.46875 2.40625 0.46875 3.03125V11.375C0.46875 12 0.70325 12.5313 1.17225 12.9688C1.64125 13.4062 2.18825 13.625 2.81325 13.625H5.532C5.7195 14.125 6.0165 14.5157 6.423 14.7972C6.8295 15.0787 7.28275 15.2195 7.78275 15.2195C8.28275 15.2195 8.736 15.0787 9.1425 14.7972C9.549 14.5157 9.846 14.125 10.0335 13.625H16.6898C16.8773 14.125 17.1742 14.5157 17.5807 14.7972C17.9872 15.0787 18.4405 15.2195 18.9405 15.2195C19.4405 15.2195 19.9092 15.0787 20.3467 14.7972C20.7842 14.5157 21.0655 14.125 21.1905 13.625H22.878C23.0655 13.625 23.2217 13.5625 23.3467 13.4375C23.4717 13.3125 23.5342 13.1562 23.5342 12.9688V6.78125C23.5342 5.78125 23.1748 4.92175 22.4557 4.20275C21.7367 3.48375 20.8773 3.12425 19.8773 3.12425L19.875 3.125ZM1.78125 11.375V3.125C1.78125 2.8125 1.875 2.5625 2.0625 2.375C2.25 2.1875 2.5 2.09375 2.8125 2.09375H13.5C13.75 2.09375 13.9688 2.1875 14.1562 2.375C14.3438 2.5625 14.4375 2.8125 14.4375 3.125V12.4062H10.125C10.0625 11.8438 9.79675 11.3593 9.32775 10.9528C8.85875 10.5463 8.3275 10.343 7.734 10.343C7.1405 10.343 6.62475 10.5305 6.18675 10.9055C5.74875 11.2805 5.4675 11.7805 5.343 12.4055H2.81175C2.49925 12.4055 2.24925 12.3118 2.06175 12.1243C1.87425 11.9368 1.7805 11.6868 1.7805 11.3743L1.78125 11.375ZM7.78125 13.9062C7.46875 13.9062 7.203 13.7968 6.984 13.5778C6.765 13.3588 6.6555 13.093 6.6555 12.7805C6.6555 12.468 6.765 12.2023 6.984 11.9833C7.203 11.7643 7.46875 11.6547 7.78125 11.6547C8.09375 11.6547 8.3595 11.7643 8.5785 11.9833C8.7975 12.2023 8.907 12.468 8.907 12.7805C8.907 13.093 8.7975 13.3588 8.5785 13.5778C8.3595 13.7968 8.09375 13.9062 7.78125 13.9062ZM19.0312 13.9062C18.7188 13.9062 18.453 13.7968 18.234 13.5778C18.015 13.3588 17.9055 13.093 17.9055 12.7805C17.9055 12.468 18.015 12.2023 18.234 11.9833C18.453 11.7643 18.7188 11.6547 19.0312 11.6547C19.3437 11.6547 19.6095 11.7643 19.8285 11.9833C20.0475 12.2023 20.1412 12.468 20.1097 12.7805C20.0782 13.093 19.9688 13.3588 19.7812 13.5778C19.5938 13.7968 19.3437 13.9062 19.0312 13.9062ZM22.2188 12.4062H21.375C21.25 11.8438 20.9687 11.3593 20.5312 10.9528C20.0938 10.5463 19.578 10.343 18.984 10.343C18.39 10.343 17.8743 10.5305 17.4368 10.9055C16.9993 11.2805 16.718 11.7805 16.593 12.4055H15.7493V4.43675H19.8743C20.4993 4.43675 21.0305 4.6555 21.468 5.093C21.9055 5.5305 22.1243 6.06175 22.1243 6.68675V12.4055H22.218L22.2188 12.4062ZM4.21875 5H7.78125C7.96875 5 8.125 4.92175 8.25 4.76525C8.375 4.60875 8.4375 4.43675 8.4375 4.24925C8.4375 4.06175 8.375 3.9055 8.25 3.7805C8.125 3.6555 7.96875 3.593 7.78125 3.593H4.21875C4.03125 3.593 3.875 3.6555 3.75 3.7805C3.625 3.9055 3.5625 4.06175 3.5625 4.24925C3.5625 4.43675 3.625 4.60875 3.75 4.76525C3.875 4.92175 4.03125 5 4.21875 5ZM6.65625 7.71875C6.84375 7.71875 7 7.65625 7.125 7.53125C7.25 7.40625 7.3125 7.25 7.3125 7.0625C7.3125 6.875 7.25 6.703 7.125 6.5465C7 6.39 6.84375 6.31175 6.65625 6.31175H4.21875C4.03125 6.31175 3.875 6.39 3.75 6.5465C3.625 6.703 3.5625 6.875 3.5625 7.0625C3.5625 7.25 3.625 7.40625 3.75 7.53125C3.875 7.65625 4.03125 7.71875 4.21875 7.71875H6.65625Z" fill="#A40731"/>
</svg>
